<svg xmlns="http://www.w3.org/2000/svg" viewBox="0 0 427 550" width="427" height="550">
<g fill="None" fill-opacity="0.0" stroke="#000000" stroke-opacity="0.00" stroke-width="0.3"><path d="
M 0.00 310.00 
C 0.50 310.00 1.00 310.00 1.00 310.00
C 1.64 278.00 28.31 254.41 55.23 239.23 C 82.15 224.05 121.14 212.73 153.00 211.00
C 161.56 210.54 171.07 210.44 179.00 209.00
C 176.71 208.24 174.19 208.19 172.00 207.00
C 154.65 202.23 136.81 201.31 119.00 198.00
C 106.57 195.69 94.33 190.67 83.00 185.00
C 64.46 175.73 54.10 166.54 40.23 149.77 C 26.36 133.00 24.54 108.83 29.00 88.00
C 30.04 83.17 31.11 80.22 33.00 76.00
C 45.12 48.86 74.46 35.99 104.00 38.00
C 117.07 38.89 136.14 49.60 143.30 35.30 C 150.46 21.00 159.23 16.25 172.08 9.08 C 184.92 1.90 204.97 3.22 218.22 7.78 C 231.48 12.33 241.43 19.10 250.75 30.25 C 260.07 41.39 263.77 56.01 266.00 70.00
C 272.45 110.55 243.93 145.13 226.00 178.00
C 224.46 180.82 221.73 186.73 222.00 189.00
C 223.08 185.78 230.52 180.68 233.00 178.00
C 238.20 172.37 243.51 166.49 249.00 161.00
C 265.43 144.57 283.30 130.45 303.00 119.00
C 317.28 110.70 332.68 105.21 349.00 102.00
C 352.00 101.41 354.86 101.17 358.00 101.00
C 362.55 100.75 367.45 100.69 372.00 101.00
C 403.26 103.13 444.62 142.16 418.00 173.00
C 408.41 184.11 399.35 192.71 409.77 205.23 C 420.19 217.75 425.41 227.61 426.00 243.00
C 426.00 242.98 427.00 243.00 427.00 243.00
L 427.00 0.00
L 0.00 0.00
L 0.00 310.00 Z"/>
</g>
<g fill="None" fill-opacity="0.0" stroke="#FBAEBA" stroke-opacity="0.98" stroke-width="0.3"><path d="
M 104.00 38.00 
C 106.26 39.44 102.34 42.16 103.00 44.00
C 106.10 45.05 108.13 42.92 112.00 43.00
C 116.12 48.08 117.76 56.89 125.00 55.00
C 123.01 58.06 122.86 61.87 124.00 66.00
C 127.94 66.06 131.70 66.52 133.00 70.00
C 139.15 63.95 142.69 76.84 150.00 71.00
C 149.84 78.23 159.21 74.09 161.00 80.00
C 166.02 77.36 165.11 71.31 171.00 76.00
C 169.33 72.39 172.58 67.34 177.00 68.00
C 173.11 63.27 185.77 63.79 180.00 59.00
C 182.29 59.76 184.81 59.81 187.00 61.00
C 185.76 63.26 183.76 61.86 182.00 63.00
C 186.89 64.32 191.09 65.71 194.00 69.00
C 191.84 65.49 196.37 64.17 198.00 62.00
C 200.29 64.25 205.61 64.67 207.00 69.00
C 212.66 64.79 215.68 69.27 220.00 72.00
C 217.06 75.20 225.43 79.20 219.00 81.00
C 223.05 88.03 217.78 96.13 217.22 104.22 C 216.67 112.32 215.93 119.47 218.00 127.00
C 215.98 126.60 211.82 133.17 213.00 136.00
C 210.42 134.52 209.48 136.24 208.00 138.00
C 210.96 140.08 210.91 140.72 212.00 144.00
C 208.16 145.47 209.26 139.61 206.00 140.00
C 206.67 143.50 205.67 148.79 201.00 148.00
C 203.34 151.42 202.72 157.26 197.00 156.00
C 198.50 159.53 195.93 163.81 193.00 166.00
C 196.64 168.09 195.62 172.98 192.00 174.00
C 190.88 170.21 189.86 168.13 186.00 168.00
C 186.18 173.21 185.53 178.23 184.00 183.00
C 179.09 180.22 177.68 183.63 177.00 188.00
C 169.89 190.96 162.98 185.47 158.00 191.00
C 154.93 187.76 150.96 193.45 152.00 186.00
C 148.38 185.13 150.15 190.51 147.00 190.00
C 144.72 182.77 139.25 193.10 133.92 192.06 C 128.59 191.03 120.64 191.54 119.00 198.00
C 136.81 201.31 154.65 202.23 172.00 207.00
C 174.33 199.99 182.76 191.34 189.00 195.00
C 190.77 189.75 190.17 195.73 193.00 194.00
C 190.95 189.38 191.93 185.12 193.00 182.00
C 196.90 180.97 196.87 186.61 201.00 185.00
C 199.47 178.54 205.24 177.13 210.10 173.10 C 214.96 169.06 218.85 164.10 224.00 161.00
C 220.46 157.56 223.17 150.43 228.00 153.00
C 228.06 146.32 231.55 141.88 233.92 137.87 C 236.28 133.86 240.00 128.74 238.00 125.00
C 242.08 119.26 253.30 111.57 249.00 104.00
C 250.28 103.48 251.74 102.73 253.00 101.00
C 250.99 100.02 250.36 97.64 249.00 96.00
C 258.18 93.34 253.95 82.07 261.00 78.00
C 256.30 74.91 263.20 70.91 266.00 70.00
C 263.77 56.01 260.07 41.39 250.75 30.25 C 241.43 19.10 231.48 12.33 218.22 7.78 C 204.97 3.22 184.92 1.90 172.08 9.08 C 159.23 16.25 150.46 21.00 143.30 35.30 C 136.14 49.60 117.07 38.89 104.00 38.00 Z"/>
</g>
<g fill="None" fill-opacity="0.0" stroke="#FBCBD4" stroke-opacity="0.99" stroke-width="0.3"><path d="
M 81.00 374.00 
C 87.17 378.45 89.17 386.88 92.92 393.08 C 96.68 399.28 101.96 404.82 108.00 409.00
C 107.15 406.88 111.31 404.04 108.00 401.00
C 115.74 401.64 109.25 393.55 113.71 389.71 C 118.16 385.86 113.39 377.04 108.00 377.00
C 109.18 373.22 113.14 377.61 115.00 375.00
C 114.47 371.48 111.08 375.69 110.00 373.00
C 112.49 370.62 117.09 367.48 113.00 364.00
C 118.66 367.36 116.22 358.64 120.00 357.00
C 114.71 354.86 117.63 342.54 110.00 346.00
C 110.10 342.77 114.04 343.90 114.00 341.00
C 108.60 341.14 113.15 336.88 113.00 334.00
C 109.60 335.31 107.47 331.50 109.00 329.00
C 105.96 329.98 101.28 328.50 101.00 323.00
C 97.08 325.28 94.33 319.73 92.00 325.00
C 89.90 322.83 88.64 321.18 86.00 324.00
C 83.03 320.48 76.74 318.01 71.93 320.93 C 67.11 323.85 61.90 320.83 58.00 323.00
C 54.02 318.78 61.01 318.05 59.58 315.23 C 58.14 312.41 58.68 305.55 64.00 306.00
C 62.39 299.37 67.89 294.84 70.00 288.00
C 78.62 288.88 84.01 282.77 92.25 280.25 C 100.49 277.73 111.09 276.14 117.10 271.10 C 123.11 266.06 130.11 259.19 138.22 258.22 C 146.34 257.26 154.34 257.39 163.00 254.00
C 165.19 260.42 160.43 266.17 156.00 272.00
C 157.85 272.72 160.48 272.98 163.00 274.00
C 164.20 271.04 167.68 270.28 166.00 267.00
C 168.13 266.43 169.43 264.53 172.00 264.00
C 171.58 271.37 187.32 272.03 182.00 280.00
C 183.20 281.97 187.59 283.01 184.00 285.00
C 195.85 291.46 203.45 276.42 213.00 278.00
C 209.06 281.25 215.64 282.62 215.00 278.00
C 217.21 277.27 216.66 280.74 219.00 280.00
C 217.97 271.69 216.94 263.36 216.00 255.00
C 209.09 252.11 201.91 256.43 194.00 255.00
C 193.67 252.02 194.82 248.58 193.00 246.00
C 190.32 250.17 186.17 243.20 182.00 246.00
C 183.97 247.79 181.56 253.22 179.00 251.00
C 181.49 250.47 180.47 244.88 178.00 247.00
C 178.58 243.08 180.44 241.35 181.00 237.00
C 178.28 240.76 175.82 238.63 173.00 239.00
C 173.21 234.68 170.36 231.16 167.00 229.00
C 163.50 232.25 160.04 227.91 156.25 230.25 C 152.45 232.59 152.38 236.47 148.00 237.00
C 147.08 236.00 143.40 237.53 144.00 234.00
C 139.76 233.24 146.02 233.28 146.00 231.00
C 140.72 230.48 140.48 233.58 136.00 235.00
C 131.62 234.05 126.63 229.08 122.00 226.00
C 121.29 235.46 108.19 235.25 104.00 232.00
C 104.96 239.53 98.77 238.28 93.00 241.00
C 93.55 235.07 89.03 242.00 87.00 238.00
C 87.41 241.96 82.31 245.13 79.00 242.00
C 77.61 247.57 69.92 250.60 64.23 255.23 C 58.54 259.86 50.56 264.53 45.00 268.00
C 43.49 272.86 50.26 276.45 46.00 280.00
C 48.71 279.73 49.70 282.96 50.00 285.00
C 47.63 285.10 46.33 281.82 45.00 285.00
C 47.89 287.15 44.97 293.71 41.00 294.00
C 41.70 299.31 37.50 305.10 32.00 304.00
C 34.14 306.36 34.95 314.36 30.00 312.00
C 27.87 317.84 35.46 320.79 33.98 326.97 C 32.49 333.16 33.36 336.42 33.00 342.00
C 35.54 341.88 36.68 343.67 37.00 345.00
C 39.97 344.29 38.30 340.72 40.00 339.00
C 40.41 343.48 47.09 339.46 43.00 344.00
C 48.93 343.36 58.67 318.82 59.00 337.00
C 61.10 330.58 75.46 337.99 70.00 343.00
C 72.69 340.28 73.41 345.77 76.00 343.00
C 81.20 352.08 78.25 365.14 81.00 374.00 Z"/>
</g>
<g fill="None" fill-opacity="0.0" stroke="#FCE0E5" stroke-opacity="0.99" stroke-width="0.3"><path d="
M 108.00 409.00 
C 136.98 429.08 178.51 418.13 199.77 389.77 C 221.03 361.41 223.47 316.02 219.00 280.00
C 216.66 280.74 217.21 277.27 215.00 278.00
C 215.64 282.62 209.06 281.25 213.00 278.00
C 203.45 276.42 195.85 291.46 184.00 285.00
C 187.59 283.01 183.20 281.97 182.00 280.00
C 187.32 272.03 171.58 271.37 172.00 264.00
C 169.43 264.53 168.13 266.43 166.00 267.00
C 167.68 270.28 164.20 271.04 163.00 274.00
C 160.48 272.98 157.85 272.72 156.00 272.00
C 160.43 266.17 165.19 260.42 163.00 254.00
C 154.34 257.39 146.34 257.26 138.22 258.22 C 130.11 259.19 123.11 266.06 117.10 271.10 C 111.09 276.14 100.49 277.73 92.25 280.25 C 84.01 282.77 78.62 288.88 70.00 288.00
C 67.89 294.84 62.39 299.37 64.00 306.00
C 58.68 305.55 58.14 312.41 59.58 315.23 C 61.01 318.05 54.02 318.78 58.00 323.00
C 61.90 320.83 67.11 323.85 71.93 320.93 C 76.74 318.01 83.03 320.48 86.00 324.00
C 88.64 321.18 89.90 322.83 92.00 325.00
C 94.33 319.73 97.08 325.28 101.00 323.00
C 101.28 328.50 105.96 329.98 109.00 329.00
C 107.47 331.50 109.60 335.31 113.00 334.00
C 113.15 336.88 108.60 341.14 114.00 341.00
C 114.04 343.90 110.10 342.77 110.00 346.00
C 117.63 342.54 114.71 354.86 120.00 357.00
C 116.22 358.64 118.66 367.36 113.00 364.00
C 117.09 367.48 112.49 370.62 110.00 373.00
C 111.08 375.69 114.47 371.48 115.00 375.00
C 113.14 377.61 109.18 373.22 108.00 377.00
C 113.39 377.04 118.16 385.86 113.71 389.71 C 109.25 393.55 115.74 401.64 108.00 401.00
C 111.31 404.04 107.15 406.88 108.00 409.00
M 151.00 311.00 
C 149.85 314.82 154.83 316.38 153.00 320.00
C 159.47 321.20 165.07 325.98 160.00 331.00
C 165.21 330.65 162.16 337.37 169.00 335.00
C 169.40 331.87 166.28 329.99 168.00 327.00
C 169.99 327.73 173.14 327.54 174.00 330.00
C 169.42 331.60 171.66 337.29 173.00 340.00
C 175.47 338.92 174.07 335.24 176.00 334.00
C 180.31 340.67 171.55 344.84 176.00 352.00
C 171.34 350.81 172.95 353.90 173.00 357.00
C 167.09 355.17 170.43 364.09 166.00 361.00
C 164.53 365.57 166.59 377.31 159.00 375.00
C 159.95 378.12 161.07 383.32 156.00 382.00
C 159.98 385.50 161.39 395.08 166.00 389.00
C 168.04 391.71 166.03 395.29 164.00 397.00
C 161.90 395.57 160.17 391.06 157.00 393.00
C 156.26 388.74 153.43 386.48 152.00 383.00
C 151.50 385.67 148.31 385.94 149.00 389.00
C 148.10 384.87 143.40 382.39 141.00 387.00
C 140.30 383.14 139.98 379.60 141.00 376.00
C 139.21 375.89 135.03 376.61 137.00 379.00
C 134.91 377.80 131.55 378.82 130.00 377.00
C 129.36 373.80 133.73 377.47 134.00 374.00
C 131.13 372.13 133.57 369.39 129.00 369.00
C 131.84 365.45 132.43 359.72 135.00 356.00
C 131.40 356.16 129.01 354.24 126.00 355.00
C 125.16 348.12 135.71 345.21 130.00 339.00
C 132.53 338.72 133.90 337.88 132.00 335.00
C 134.52 335.16 134.68 330.69 138.00 332.00
C 132.15 326.80 144.61 317.76 144.00 310.00
C 146.19 311.19 148.67 312.93 151.00 311.00 Z"/>
</g>
<g fill="None" fill-opacity="0.0" stroke="#000000" stroke-opacity="0.00" stroke-width="0.3"><path d="
M 219.00 280.00 
C 223.47 316.02 221.03 361.41 199.77 389.77 C 178.51 418.13 136.98 429.08 108.00 409.00
C 101.96 404.82 96.68 399.28 92.92 393.08 C 89.17 386.88 87.17 378.45 81.00 374.00
C 70.81 366.65 52.56 374.53 41.07 371.93 C 29.59 369.33 20.85 364.90 13.30 355.70 C 5.76 346.50 2.40 335.91 0.00 325.00
L 0.00 550.00
L 219.00 550.00
C 211.26 547.26 203.92 542.76 200.00 535.00
C 192.64 520.44 202.45 510.70 210.00 499.00
C 224.59 476.39 234.67 452.84 238.00 426.00
C 243.68 380.17 237.58 333.36 227.00 290.00
C 225.97 285.76 225.16 281.23 224.00 277.00
C 222.08 270.02 217.76 262.04 216.00 255.00
C 216.94 263.36 217.97 271.69 219.00 280.00 Z"/>
</g>
<g fill="None" fill-opacity="0.0" stroke="#000000" stroke-opacity="0.00" stroke-width="0.3"><path d="
M 424.00 275.00 
C 411.26 313.21 372.40 328.29 335.00 325.00
C 332.31 324.76 329.12 324.30 327.00 324.00
C 297.85 319.84 273.65 305.45 254.00 282.00
C 256.00 286.19 256.60 290.69 258.00 295.00
C 267.40 323.96 279.62 354.33 284.00 385.00
C 288.07 413.52 288.55 453.67 280.07 480.07 C 271.60 506.48 264.15 529.90 240.00 545.00
C 236.94 546.92 233.29 548.96 230.00 550.00
L 427.00 550.00
L 427.00 263.00
C 427.00 263.00 426.00 263.02 426.00 263.00
C 425.84 267.29 425.31 271.08 424.00 275.00 Z"/>
</g>
<g fill="None" fill-opacity="0.0" stroke="#F98A9A" stroke-opacity="0.95" stroke-width="0.3"><path d="
M 335.00 325.00 
C 372.40 328.29 411.26 313.21 424.00 275.00
C 422.23 273.78 420.12 273.94 418.00 274.00
C 418.96 279.01 410.87 274.74 408.08 279.08 C 405.30 283.42 400.55 285.30 400.00 291.00
C 398.01 287.21 394.28 288.54 395.00 293.00
C 390.12 291.64 384.84 298.36 382.00 302.00
C 375.74 296.20 370.96 310.54 365.00 308.00
C 364.93 315.65 353.67 312.62 353.00 318.00
C 347.24 312.98 341.34 318.86 336.00 316.00
C 338.74 318.30 337.58 321.10 334.00 321.00
C 334.01 322.35 333.95 323.98 335.00 325.00 Z"/>
</g>
<g fill="None" fill-opacity="0.0" stroke="#FA98A7" stroke-opacity="0.97" stroke-width="0.3"><path d="
M 227.00 290.00 
C 230.95 296.00 235.88 301.92 238.26 309.74 C 240.64 317.57 243.37 324.74 247.00 332.00
C 250.68 339.37 256.43 346.75 255.00 355.00
C 258.84 353.53 257.74 359.39 261.00 359.00
C 254.33 365.44 268.12 373.74 269.00 382.00
C 259.45 383.31 272.51 392.31 264.00 391.00
C 264.83 394.22 267.00 395.60 270.00 394.00
C 264.91 399.33 272.54 410.00 266.00 414.00
C 269.67 420.58 264.02 425.73 266.00 433.00
C 272.00 434.39 272.05 439.91 266.00 438.00
C 270.24 440.83 271.95 449.83 267.00 452.00
C 273.68 460.74 263.40 471.77 265.00 482.00
C 257.00 485.57 259.43 499.23 251.00 504.00
C 253.47 509.91 248.41 515.13 249.00 521.00
C 240.06 522.56 243.31 539.23 240.00 545.00
C 264.15 529.90 271.60 506.48 280.07 480.07 C 288.55 453.67 288.07 413.52 284.00 385.00
C 282.55 384.92 281.14 385.07 280.00 386.00
C 279.36 380.88 278.67 375.97 275.90 372.10 C 273.14 368.22 275.10 361.58 270.00 361.00
C 271.50 357.49 271.21 351.74 267.00 352.00
C 267.34 338.32 260.59 327.26 261.00 315.00
C 255.72 316.22 255.79 310.15 257.00 307.00
C 247.77 305.18 241.86 293.74 233.00 289.00
C 236.77 282.32 227.06 280.27 224.00 277.00
C 225.16 281.23 225.97 285.76 227.00 290.00 Z"/>
</g>
<g fill="None" fill-opacity="0.0" stroke="#FCD5DB" stroke-opacity="0.97" stroke-width="0.3"><path d="
M 238.00 426.00 
C 240.12 440.59 240.83 456.97 229.00 469.00
C 235.90 473.97 222.53 479.12 227.00 486.00
C 219.72 483.13 218.69 501.79 210.00 499.00
C 202.45 510.70 192.64 520.44 200.00 535.00
C 202.79 534.24 203.40 529.06 207.00 528.00
C 202.83 524.53 209.64 514.88 214.00 520.00
C 216.34 515.71 211.81 512.52 214.00 508.00
C 218.78 508.33 219.79 511.37 219.00 516.00
C 227.10 512.31 229.10 512.28 237.67 513.33 C 246.24 514.38 242.98 503.18 246.99 497.99 C 250.99 492.80 253.25 483.83 253.99 476.99 C 254.74 470.15 256.22 462.51 255.00 455.00
C 259.69 452.17 257.82 441.73 257.66 436.32 C 257.50 430.91 252.58 421.59 257.00 415.00
C 256.89 412.33 254.36 411.80 254.00 409.00
C 259.87 404.95 250.51 400.63 257.00 396.00
C 256.57 391.71 255.11 397.89 253.00 397.00
C 254.64 391.52 256.25 384.27 252.00 380.00
C 256.87 373.58 252.37 365.86 253.20 357.75 C 254.03 349.65 243.44 339.99 247.00 332.00
C 243.37 324.74 240.64 317.57 238.26 309.74 C 235.88 301.92 230.95 296.00 227.00 290.00
C 237.58 333.36 243.68 380.17 238.00 426.00 Z"/>
</g>
<g fill="None" fill-opacity="0.0" stroke="#F9A7B3" stroke-opacity="0.25" stroke-width="0.3"><path d="
M 0.00 324.00 
C 1.89 320.32 0.91 314.51 1.00 310.00
C 1.00 310.00 0.50 310.00 0.00 310.00
L 0.00 324.00 Z"/>
</g>
<g fill="None" fill-opacity="0.0" stroke="#FDEDF0" stroke-opacity="1.00" stroke-width="0.3"><path d="
M 151.00 311.00 
C 148.67 312.93 146.19 311.19 144.00 310.00
C 144.61 317.76 132.15 326.80 138.00 332.00
C 134.68 330.69 134.52 335.16 132.00 335.00
C 133.90 337.88 132.53 338.72 130.00 339.00
C 135.71 345.21 125.16 348.12 126.00 355.00
C 129.01 354.24 131.40 356.16 135.00 356.00
C 132.43 359.72 131.84 365.45 129.00 369.00
C 133.57 369.39 131.13 372.13 134.00 374.00
C 133.73 377.47 129.36 373.80 130.00 377.00
C 131.55 378.82 134.91 377.80 137.00 379.00
C 135.03 376.61 139.21 375.89 141.00 376.00
C 139.98 379.60 140.30 383.14 141.00 387.00
C 143.40 382.39 148.10 384.87 149.00 389.00
C 148.31 385.94 151.50 385.67 152.00 383.00
C 153.43 386.48 156.26 388.74 157.00 393.00
C 160.17 391.06 161.90 395.57 164.00 397.00
C 166.03 395.29 168.04 391.71 166.00 389.00
C 161.39 395.08 159.98 385.50 156.00 382.00
C 161.07 383.32 159.95 378.12 159.00 375.00
C 166.59 377.31 164.53 365.57 166.00 361.00
C 170.43 364.09 167.09 355.17 173.00 357.00
C 172.95 353.90 171.34 350.81 176.00 352.00
C 171.55 344.84 180.31 340.67 176.00 334.00
C 174.07 335.24 175.47 338.92 173.00 340.00
C 171.66 337.29 169.42 331.60 174.00 330.00
C 173.14 327.54 169.99 327.73 168.00 327.00
C 166.28 329.99 169.40 331.87 169.00 335.00
C 162.16 337.37 165.21 330.65 160.00 331.00
C 165.07 325.98 159.47 321.20 153.00 320.00
C 154.83 316.38 149.85 314.82 151.00 311.00 Z"/>
</g>
<g fill="None" fill-opacity="0.0" stroke="#FBB7C2" stroke-opacity="0.98" stroke-width="0.3"><path d="
M 200.00 535.00 
C 203.92 542.76 211.26 547.26 219.00 550.00
L 230.00 550.00
C 233.29 548.96 236.94 546.92 240.00 545.00
C 243.31 539.23 240.06 522.56 249.00 521.00
C 248.41 515.13 253.47 509.91 251.00 504.00
C 259.43 499.23 257.00 485.57 265.00 482.00
C 263.40 471.77 273.68 460.74 267.00 452.00
C 271.95 449.83 270.24 440.83 266.00 438.00
C 272.05 439.91 272.00 434.39 266.00 433.00
C 264.02 425.73 269.67 420.58 266.00 414.00
C 272.54 410.00 264.91 399.33 270.00 394.00
C 267.00 395.60 264.83 394.22 264.00 391.00
C 272.51 392.31 259.45 383.31 269.00 382.00
C 268.12 373.74 254.33 365.44 261.00 359.00
C 257.74 359.39 258.84 353.53 255.00 355.00
C 256.43 346.75 250.68 339.37 247.00 332.00
C 243.44 339.99 254.03 349.65 253.20 357.75 C 252.37 365.86 256.87 373.58 252.00 380.00
C 256.25 384.27 254.64 391.52 253.00 397.00
C 255.11 397.89 256.57 391.71 257.00 396.00
C 250.51 400.63 259.87 404.95 254.00 409.00
C 254.36 411.80 256.89 412.33 257.00 415.00
C 252.58 421.59 257.50 430.91 257.66 436.32 C 257.82 441.73 259.69 452.17 255.00 455.00
C 256.22 462.51 254.74 470.15 253.99 476.99 C 253.25 483.83 250.99 492.80 246.99 497.99 C 242.98 503.18 246.24 514.38 237.67 513.33 C 229.10 512.28 227.10 512.31 219.00 516.00
C 219.79 511.37 218.78 508.33 214.00 508.00
C 211.81 512.52 216.34 515.71 214.00 520.00
C 209.64 514.88 202.83 524.53 207.00 528.00
C 203.40 529.06 202.79 534.24 200.00 535.00 Z"/>
</g>
<g fill="None" fill-opacity="0.0" stroke="#FCE7EB" stroke-opacity="0.85" stroke-width="0.3"><path d="
M 210.00 499.00 
C 218.69 501.79 219.72 483.13 227.00 486.00
C 222.53 479.12 235.90 473.97 229.00 469.00
C 240.83 456.97 240.12 440.59 238.00 426.00
C 234.67 452.84 224.59 476.39 210.00 499.00 Z"/>
</g>
<g fill="#000000" fill-opacity="0.00" stroke="None">
<path d="
M 0.00 310.00 
C 0.50 310.00 1.00 310.00 1.00 310.00
C 1.64 278.00 28.31 254.41 55.23 239.23 C 82.15 224.05 121.14 212.73 153.00 211.00
C 161.56 210.54 171.07 210.44 179.00 209.00
C 176.71 208.24 174.19 208.19 172.00 207.00
C 154.65 202.23 136.81 201.31 119.00 198.00
C 106.57 195.69 94.33 190.67 83.00 185.00
C 64.46 175.73 54.10 166.54 40.23 149.77 C 26.36 133.00 24.54 108.83 29.00 88.00
C 30.04 83.17 31.11 80.22 33.00 76.00
C 45.12 48.86 74.46 35.99 104.00 38.00
C 117.07 38.89 136.14 49.60 143.30 35.30 C 150.46 21.00 159.23 16.25 172.08 9.08 C 184.92 1.90 204.97 3.22 218.22 7.78 C 231.48 12.33 241.43 19.10 250.75 30.25 C 260.07 41.39 263.77 56.01 266.00 70.00
C 272.45 110.55 243.93 145.13 226.00 178.00
C 224.46 180.82 221.73 186.73 222.00 189.00
C 223.08 185.78 230.52 180.68 233.00 178.00
C 238.20 172.37 243.51 166.49 249.00 161.00
C 265.43 144.57 283.30 130.45 303.00 119.00
C 317.28 110.70 332.68 105.21 349.00 102.00
C 352.00 101.41 354.86 101.17 358.00 101.00
C 362.55 100.75 367.45 100.69 372.00 101.00
C 403.26 103.13 444.62 142.16 418.00 173.00
C 408.41 184.11 399.35 192.71 409.77 205.23 C 420.19 217.75 425.41 227.61 426.00 243.00
C 426.00 242.98 427.00 243.00 427.00 243.00
L 427.00 0.00
L 0.00 0.00
L 0.00 310.00 Z"/>
</g>
<g fill="#FBAEBA" fill-opacity="0.98" stroke="None">
<path d="
M 104.00 38.00 
C 106.26 39.44 102.34 42.16 103.00 44.00
C 106.10 45.05 108.13 42.92 112.00 43.00
C 116.12 48.08 117.76 56.89 125.00 55.00
C 123.01 58.06 122.86 61.87 124.00 66.00
C 127.94 66.06 131.70 66.52 133.00 70.00
C 139.15 63.95 142.69 76.84 150.00 71.00
C 149.84 78.23 159.21 74.09 161.00 80.00
C 166.02 77.36 165.11 71.31 171.00 76.00
C 169.33 72.39 172.58 67.34 177.00 68.00
C 173.11 63.27 185.77 63.79 180.00 59.00
C 182.29 59.76 184.81 59.81 187.00 61.00
C 185.76 63.26 183.76 61.86 182.00 63.00
C 186.89 64.32 191.09 65.71 194.00 69.00
C 191.84 65.49 196.37 64.17 198.00 62.00
C 200.29 64.25 205.61 64.67 207.00 69.00
C 212.66 64.79 215.68 69.27 220.00 72.00
C 217.06 75.20 225.43 79.20 219.00 81.00
C 223.05 88.03 217.78 96.13 217.22 104.22 C 216.67 112.32 215.93 119.47 218.00 127.00
C 215.98 126.60 211.82 133.17 213.00 136.00
C 210.42 134.52 209.48 136.24 208.00 138.00
C 210.96 140.08 210.91 140.72 212.00 144.00
C 208.16 145.47 209.26 139.61 206.00 140.00
C 206.67 143.50 205.67 148.79 201.00 148.00
C 203.34 151.42 202.72 157.26 197.00 156.00
C 198.50 159.53 195.93 163.81 193.00 166.00
C 196.64 168.09 195.62 172.98 192.00 174.00
C 190.88 170.21 189.86 168.13 186.00 168.00
C 186.18 173.21 185.53 178.23 184.00 183.00
C 179.09 180.22 177.68 183.63 177.00 188.00
C 169.89 190.96 162.98 185.47 158.00 191.00
C 154.93 187.76 150.96 193.45 152.00 186.00
C 148.38 185.13 150.15 190.51 147.00 190.00
C 144.72 182.77 139.25 193.10 133.92 192.06 C 128.59 191.03 120.64 191.54 119.00 198.00
C 136.81 201.31 154.65 202.23 172.00 207.00
C 174.33 199.99 182.76 191.34 189.00 195.00
C 190.77 189.75 190.17 195.73 193.00 194.00
C 190.95 189.38 191.93 185.12 193.00 182.00
C 196.90 180.97 196.87 186.61 201.00 185.00
C 199.47 178.54 205.24 177.13 210.10 173.10 C 214.96 169.06 218.85 164.10 224.00 161.00
C 220.46 157.56 223.17 150.43 228.00 153.00
C 228.06 146.32 231.55 141.88 233.92 137.87 C 236.28 133.86 240.00 128.74 238.00 125.00
C 242.08 119.26 253.30 111.57 249.00 104.00
C 250.28 103.48 251.74 102.73 253.00 101.00
C 250.99 100.02 250.36 97.64 249.00 96.00
C 258.18 93.34 253.95 82.07 261.00 78.00
C 256.30 74.91 263.20 70.91 266.00 70.00
C 263.77 56.01 260.07 41.39 250.75 30.25 C 241.43 19.10 231.48 12.33 218.22 7.78 C 204.97 3.22 184.92 1.90 172.08 9.08 C 159.23 16.25 150.46 21.00 143.30 35.30 C 136.14 49.60 117.07 38.89 104.00 38.00 Z"/>
</g>
<g fill="None" fill-opacity="0.0" stroke="#FBCBD4" stroke-opacity="0.99" stroke-width="0.3"><path d="
M 104.00 38.00 
C 106.26 39.44 102.34 42.16 103.00 44.00
C 106.10 45.05 108.13 42.92 112.00 43.00
C 116.12 48.08 117.76 56.89 125.00 55.00
C 123.01 58.06 122.86 61.87 124.00 66.00
C 127.94 66.06 131.70 66.52 133.00 70.00
C 139.15 63.95 142.69 76.84 150.00 71.00
C 149.84 78.23 159.21 74.09 161.00 80.00
C 166.02 77.36 165.11 71.31 171.00 76.00
C 169.33 72.39 172.58 67.34 177.00 68.00
C 173.11 63.27 185.77 63.79 180.00 59.00
C 182.29 59.76 184.81 59.81 187.00 61.00
C 185.76 63.26 183.76 61.86 182.00 63.00
C 186.89 64.32 191.09 65.71 194.00 69.00
C 191.84 65.49 196.37 64.17 198.00 62.00
C 200.29 64.25 205.61 64.67 207.00 69.00
C 212.66 64.79 215.68 69.27 220.00 72.00
C 217.06 75.20 225.43 79.20 219.00 81.00
C 223.05 88.03 217.78 96.13 217.22 104.22 C 216.67 112.32 215.93 119.47 218.00 127.00
C 215.98 126.60 211.82 133.17 213.00 136.00
C 210.42 134.52 209.48 136.24 208.00 138.00
C 210.96 140.08 210.91 140.72 212.00 144.00
C 208.16 145.47 209.26 139.61 206.00 140.00
C 206.67 143.50 205.67 148.79 201.00 148.00
C 203.34 151.42 202.72 157.26 197.00 156.00
C 198.50 159.53 195.93 163.81 193.00 166.00
C 196.64 168.09 195.62 172.98 192.00 174.00
C 190.88 170.21 189.86 168.13 186.00 168.00
C 186.18 173.21 185.53 178.23 184.00 183.00
C 179.09 180.22 177.68 183.63 177.00 188.00
C 169.89 190.96 162.98 185.47 158.00 191.00
C 154.93 187.76 150.96 193.45 152.00 186.00
C 148.38 185.13 150.15 190.51 147.00 190.00
C 144.72 182.77 139.25 193.10 133.92 192.06 C 128.59 191.03 120.64 191.54 119.00 198.00
C 136.81 201.31 154.65 202.23 172.00 207.00
C 174.33 199.99 182.76 191.34 189.00 195.00
C 190.77 189.75 190.17 195.73 193.00 194.00
C 190.95 189.38 191.93 185.12 193.00 182.00
C 196.90 180.97 196.87 186.61 201.00 185.00
C 199.47 178.54 205.24 177.13 210.10 173.10 C 214.96 169.06 218.85 164.10 224.00 161.00
C 220.46 157.56 223.17 150.43 228.00 153.00
C 228.06 146.32 231.55 141.88 233.92 137.87 C 236.28 133.86 240.00 128.74 238.00 125.00
C 242.08 119.26 253.30 111.57 249.00 104.00
C 250.28 103.48 251.74 102.73 253.00 101.00
C 250.99 100.02 250.36 97.64 249.00 96.00
C 258.18 93.34 253.95 82.07 261.00 78.00
C 256.30 74.91 263.20 70.91 266.00 70.00
C 263.77 56.01 260.07 41.39 250.75 30.25 C 241.43 19.10 231.48 12.33 218.22 7.78 C 204.97 3.22 184.92 1.90 172.08 9.08 C 159.23 16.25 150.46 21.00 143.30 35.30 C 136.14 49.60 117.07 38.89 104.00 38.00 Z"/>
</g>
<g fill="None" fill-opacity="0.0" stroke="#FBCBD4" stroke-opacity="0.99" stroke-width="0.3"><path d="
M 104.00 38.00 
C 106.26 39.44 102.34 42.16 103.00 44.00
C 106.10 45.05 108.13 42.92 112.00 43.00
C 116.12 48.08 117.76 56.89 125.00 55.00
C 123.01 58.06 122.86 61.87 124.00 66.00
C 127.94 66.06 131.70 66.52 133.00 70.00
C 139.15 63.95 142.69 76.84 150.00 71.00
C 149.84 78.23 159.21 74.09 161.00 80.00
C 166.02 77.36 165.11 71.31 171.00 76.00
C 169.33 72.39 172.58 67.34 177.00 68.00
C 173.11 63.27 185.77 63.79 180.00 59.00
C 182.29 59.76 184.81 59.81 187.00 61.00
C 185.76 63.26 183.76 61.86 182.00 63.00
C 186.89 64.32 191.09 65.71 194.00 69.00
C 191.84 65.49 196.37 64.17 198.00 62.00
C 200.29 64.25 205.61 64.67 207.00 69.00
C 212.66 64.79 215.68 69.27 220.00 72.00
C 217.06 75.20 225.43 79.20 219.00 81.00
C 223.05 88.03 217.78 96.13 217.22 104.22 C 216.67 112.32 215.93 119.47 218.00 127.00
C 215.98 126.60 211.82 133.17 213.00 136.00
C 210.42 134.52 209.48 136.24 208.00 138.00
C 210.96 140.08 210.91 140.72 212.00 144.00
C 208.16 145.47 209.26 139.61 206.00 140.00
C 206.67 143.50 205.67 148.79 201.00 148.00
C 203.34 151.42 202.72 157.26 197.00 156.00
C 198.50 159.53 195.93 163.81 193.00 166.00
C 196.64 168.09 195.62 172.98 192.00 174.00
C 190.88 170.21 189.86 168.13 186.00 168.00
C 186.18 173.21 185.53 178.23 184.00 183.00
C 179.09 180.22 177.68 183.63 177.00 188.00
C 169.89 190.96 162.98 185.47 158.00 191.00
C 154.93 187.76 150.96 193.45 152.00 186.00
C 148.38 185.13 150.15 190.51 147.00 190.00
C 144.72 182.77 139.25 193.10 133.92 192.06 C 128.59 191.03 120.64 191.54 119.00 198.00
C 136.81 201.31 154.65 202.23 172.00 207.00
C 174.33 199.99 182.76 191.34 189.00 195.00
C 190.77 189.75 190.17 195.73 193.00 194.00
C 190.95 189.38 191.93 185.12 193.00 182.00
C 196.90 180.97 196.87 186.61 201.00 185.00
C 199.47 178.54 205.24 177.13 210.10 173.10 C 214.96 169.06 218.85 164.10 224.00 161.00
C 220.46 157.56 223.17 150.43 228.00 153.00
C 228.06 146.32 231.55 141.88 233.92 137.87 C 236.28 133.86 240.00 128.74 238.00 125.00
C 242.08 119.26 253.30 111.57 249.00 104.00
C 250.28 103.48 251.74 102.73 253.00 101.00
C 250.99 100.02 250.36 97.64 249.00 96.00
C 258.18 93.34 253.95 82.07 261.00 78.00
C 256.30 74.91 263.20 70.91 266.00 70.00
C 263.77 56.01 260.07 41.39 250.75 30.25 C 241.43 19.10 231.48 12.33 218.22 7.78 C 204.97 3.22 184.92 1.90 172.08 9.08 C 159.23 16.25 150.46 21.00 143.30 35.30 C 136.14 49.60 117.07 38.89 104.00 38.00 Z"/>
</g>
<g fill="None" fill-opacity="0.0" stroke="#FBCBD4" stroke-opacity="0.99" stroke-width="0.3"><path d="
M 104.00 38.00 
C 106.26 39.44 102.34 42.16 103.00 44.00
C 106.10 45.05 108.13 42.92 112.00 43.00
C 116.12 48.08 117.76 56.89 125.00 55.00
C 123.01 58.06 122.86 61.87 124.00 66.00
C 127.94 66.06 131.70 66.52 133.00 70.00
C 139.15 63.95 142.69 76.84 150.00 71.00
C 149.84 78.23 159.21 74.09 161.00 80.00
C 166.02 77.36 165.11 71.31 171.00 76.00
C 169.33 72.39 172.58 67.34 177.00 68.00
C 173.11 63.27 185.77 63.79 180.00 59.00
C 182.29 59.76 184.81 59.81 187.00 61.00
C 185.76 63.26 183.76 61.86 182.00 63.00
C 186.89 64.32 191.09 65.71 194.00 69.00
C 191.84 65.49 196.37 64.17 198.00 62.00
C 200.29 64.25 205.61 64.67 207.00 69.00
C 212.66 64.79 215.68 69.27 220.00 72.00
C 217.06 75.20 225.43 79.20 219.00 81.00
C 223.05 88.03 217.78 96.13 217.22 104.22 C 216.67 112.32 215.93 119.47 218.00 127.00
C 215.98 126.60 211.82 133.17 213.00 136.00
C 210.42 134.52 209.48 136.24 208.00 138.00
C 210.96 140.08 210.91 140.72 212.00 144.00
C 208.16 145.47 209.26 139.61 206.00 140.00
C 206.67 143.50 205.67 148.79 201.00 148.00
C 203.34 151.42 202.72 157.26 197.00 156.00
C 198.50 159.53 195.93 163.81 193.00 166.00
C 196.64 168.09 195.62 172.98 192.00 174.00
C 190.88 170.21 189.86 168.13 186.00 168.00
C 186.18 173.21 185.53 178.23 184.00 183.00
C 179.09 180.22 177.68 183.63 177.00 188.00
C 169.89 190.96 162.98 185.47 158.00 191.00
C 154.93 187.76
C 109.60 335.31 107.47 331.50 109.00 329.00
C 105.96 329.98 101.28 328.50 101.00 323.00
C 97.08 325.28 94.33 319.73 92.00 325.00
C 89.90 322.83 88.64 321.18 86.00 324.00
C 83.03 320.48 76.74 318.01 71.93 320.93 C 67.11 323.85 61.90 320.83 58.00 323.00
C 54.02 318.78 61.01 318.05 59.58 315.23 C 58.14 312.41 58.68 305.55 64.00 306.00
C 62.39 299.37 67.89 294.84 70.00 288.00
C 78.62 288.88 84.01 282.77 92.25 280.25 C 100.49 277.73 111.09 276.14 117.10 271.10 C 123.11 266.06 130.11 259.19 138.22 258.22 C 146.34 257.26 154.34 257.39 163.00 254.00
C 165.19 260.42 160.43 266.17 156.00 272.00
C 157.85 272.72 160.48 272.98 163.00 274.00
C 164.20 271.04 167.68 270.28 166.00 267.00
C 168.13 266.43 169.43 264.53 172.00 264.00
C 171.58 271.37 187.32 272.03 182.00 280.00
C 183.20 281.97 187.59 283.01 184.00 285.00
C 195.85 291.46 203.45 276.42 213.00 278.00
C 209.06 281.25 215.64 282.62 215.00 278.00
C 217.21 277.27 216.66 280.74 219.00 280.00
C 217.97 271.69 216.94 263.36 216.00 255.00
C 209.09 252.11 201.91 256.43 194.00 255.00
C 193.67 252.02 194.82 248.58 193.00 246.00
C 190.32 250.17 186.17 243.20 182.00 246.00
C 183.97 247.79 181.56 253.22 179.00 251.00
C 181.49 250.47 180.47 244.88 178.00 247.00
C 178.58 243.08 180.44 241.35 181.00 237.00
C 178.28 240.76 175.82 238.63 173.00 239.00
C 173.21 234.68 170.36 231.16 167.00 229.00
C 163.50 232.25 160.04 227.91 156.25 230.25 C 152.45 232.59 152.38 236.47 148.00 237.00
C 147.08 236.00 143.40 237.53 144.00 234.00
C 139.76 233.24 146.02 233.28 146.00 231.00
C 140.72 230.48 140.48 233.58 136.00 235.00
C 131.62 234.05 126.63 229.08 122.00 226.00
C 121.29 235.46 108.19 235.25 104.00 232.00
C 104.96 239.53 98.77 238.28 93.00 241.00
C 93.55 235.07 89.03 242.00 87.00 238.00
C 87.41 241.96 82.31 245.13 79.00 242.00
C 77.61 247.57 69.92 250.60 64.23 255.23 C 58.54 259.86 50.56 264.53 45.00 268.00
C 43.49 272.86 50.26 276.45 46.00 280.00
C 48.71 279.73 49.70 282.96 50.00 285.00
C 47.63 285.10 46.33 281.82 45.00 285.00
C 47.89 287.15 44.97 293.71 41.00 294.00
C 41.70 299.31 37.50 305.10 32.00 304.00
C 34.14 306.36 34.95 314.36 30.00 312.00
C 27.87 317.84 35.46 320.79 33.98 326.97 C 32.49 333.16 33.36 336.42 33.00 342.00
C 35.54 341.88 36.68 343.67 37.00 345.00
C 39.97 344.29 38.30 340.72 40.00 339.00
C 40.41 343.48 47.09 339.46 43.00 344.00
C 48.93 343.36 58.67 318.82 59.00 337.00
C 61.10 330.58 75.46 337.99 70.00 343.00
C 72.69 340.28 73.41 345.77 76.00 343.00
C 81.20 352.08 78.25 365.14 81.00 374.00 Z"/>
</g>
<g fill="None" fill-opacity="0.0" stroke="#F55669" stroke-opacity="0.98" stroke-width="0.3"><path d="
M 258.00 295.00 
C 256.60 290.69 256.00 286.19 254.00 282.00
C 243.06 265.56 228.41 250.75 217.00 235.00
C 213.70 243.85 221.15 251.81 223.79 258.77 C 226.42 265.73 231.79 274.69 240.00 276.00
C 240.92 284.97 253.20 290.20 258.00 295.00 Z"/>
</g>
<g fill="None" fill-opacity="0.0" stroke="#F899A6" stroke-opacity="0.43" stroke-width="0.3"><path d="
M 426.00 263.00 
C 426.00 263.02 427.00 263.00 427.00 263.00
L 427.00 243.00
C 427.00 243.00 426.00 242.98 426.00 243.00
C 426.25 249.60 426.25 256.40 426.00 263.00 Z"/>
</g>
<g fill="None" fill-opacity="0.0" stroke="#FCE0E5" stroke-opacity="0.99" stroke-width="0.3"><path d="
M 108.00 409.00 
C 136.98 429.08 178.51 418.13 199.77 389.77 C 221.03 361.41 223.47 316.02 219.00 280.00
C 216.66 280.74 217.21 277.27 215.00 278.00
C 215.64 282.62 209.06 281.25 213.00 278.00
C 203.45 276.42 195.85 291.46 184.00 285.00
C 187.59 283.01 183.20 281.97 182.00 280.00
C 187.32 272.03 171.58 271.37 172.00 264.00
C 169.43 264.53 168.13 266.43 166.00 267.00
C 167.68 270.28 164.20 271.04 163.00 274.00
C 160.48 272.98 157.85 272.72 156.00 272.00
C 160.43 266.17 165.19 260.42 163.00 254.00
C 154.34 257.39 146.34 257.26 138.22 258.22 C 130.11 259.19 123.11 266.06 117.10 271.10 C 111.09 276.14 100.49 277.73 92.25 280.25 C 84.01 282.77 78.62 288.88 70.00 288.00
C 67.89 294.84 62.39 299.37 64.00 306.00
C 58.68 305.55 58.14 312.41 59.58 315.23 C 61.01 318.05 54.02 318.78 58.00 323.00
C 61.90 320.83 67.11 323.85 71.93 320.93 C 76.74 318.01 83.03 320.48 86.00 324.00
C 88.64 321.18 89.90 322.83 92.00 325.00
C 94.33 319.73 97.08 325.28 101.00 323.00
C 101.28 328.50 105.96 329.98 109.00 329.00
C 107.47 331.50 109.60 335.31 113.00 334.00
C 113.15 336.88 108.60 341.14 114.00 341.00
C 114.04 343.90 110.10 342.77 110.00 346.00
C 117.63 342.54 114.71 354.86 120.00 357.00
C 116.22 358.64 118.66 367.36 113.00 364.00
C 117.09 367.48 112.49 370.62 110.00 373.00
C 111.08 375.69 114.47 371.48 115.00 375.00
C 113.14 377.61 109.18 373.22 108.00 377.00
C 113.39 377.04 118.16 385.86 113.71 389.71 C 109.25 393.55 115.74 401.64 108.00 401.00
C 111.31 404.04 107.15 406.88 108.00 409.00
M 151.00 311.00 
C 149.85 314.82 154.83 316.38 153.00 320.00
C 159.47 321.20 165.07 325.98 160.00 331.00
C 165.21 330.65 162.16 337.37 169.00 335.00
C 169.40 331.87 166.28 329.99 168.00 327.00
C 169.99 327.73 173.14 327.54 174.00 330.00
C 169.42 331.60 171.66 337.29 173.00 340.00
C 175.47 338.92 174.07 335.24 176.00 334.00
C 180.31 340.67 171.55 344.84 176.00 352.00
C 171.34 350.81 172.95 353.90 173.00 357.00
C 167.09 355.17 170.43 364.09 166.00 361.00
C 164.53 365.57 166.59 377.31 159.00 375.00
C 159.95 378.12 161.07 383.32 156.00 382.00
C 159.98 385.50 161.39 395.08 166.00 389.00
C 168.04 391.71 166.03 395.29 164.00 397.00
C 161.90 395.57 160.17 391.06 157.00 393.00
C 156.26 388.74 153.43 386.48 152.00 383.00
C 151.50 385.67 148.31 385.94 149.00 389.00
C 148.10 384.87 143.40 382.39 141.00 387.00
C 140.30 383.14 139.98 379.60 141.00 376.00
C 139.21 375.89 135.03 376.61 137.00 379.00
C 134.91 377.80 131.55 378.82 130.00 377.00
C 129.36 373.80 133.73 377.47 134.00 374.00
C 131.13 372.13 133.57 369.39 129.00 369.00
C 131.84 365.45 132.43 359.72 135.00 356.00
C 131.40 356.16 129.01 354.24 126.00 355.00
C 125.16 348.12 135.71 345.21 130.00 339.00
C 132.53 338.72 133.90 337.88 132.00 335.00
C 134.52 335.16 134.68 330.69 138.00 332.00
C 132.15 326.80 144.61 317.76 144.00 310.00
C 146.19 311.19 148.67 312.93 151.00 311.00 Z"/>
</g>
<g fill="None" fill-opacity="0.0" stroke="#000000" stroke-opacity="0.00" stroke-width="0.3"><path d="
M 219.00 280.00 
C 223.47 316.02 221.03 361.41 199.77 389.77 C 178.51 418.13 136.98 429.08 108.00 409.00
C 101.96 404.82 96.68 399.28 92.92 393.08 C 89.17 386.88 87.17 378.45 81.00 374.00
C 70.81 366.65 52.56 374.53 41.07 371.93 C 29.59 369.33 20.85 364.90 13.30 355.70 C 5.76 346.50 2.40 335.91 0.00 325.00
L 0.00 550.00
L 219.00 550.00
C 211.26 547.26 203.92 542.76 200.00 535.00
C 192.64 520.44 202.45 510.70 210.00 499.00
C 224.59 476.39 234.67 452.84 238.00 426.00
C 243.68 380.17 237.58 333.36 227.00 290.00
C 225.97 285.76 225.16 281.23 224.00 277.00
C 222.08 270.02 217.76 262.04 216.00 255.00
C 216.94 263.36 217.97 271.69 219.00 280.00 Z"/>
</g>
<g fill="None" fill-opacity="0.0" stroke="#000000" stroke-opacity="0.00" stroke-width="0.3"><path d="
M 424.00 275.00 
C 411.26 313.21 372.40 328.29 335.00 325.00
C 332.31 324.76 329.12 324.30 327.00 324.00
C 297.85 319.84 273.65 305.45 254.00 282.00
C 256.00 286.19 256.60 290.69 258.00 295.00
C 267.40 323.96 279.62 354.33 284.00 385.00
C 288.07 413.52 288.55 453.67 280.07 480.07 C 271.60 506.48 264.15 529.90 240.00 545.00
C 236.94 546.92 233.29 548.96 230.00 550.00
L 427.00 550.00
L 427.00 263.00
C 427.00 263.00 426.00 263.02 426.00 263.00
C 425.84 267.29 425.31 271.08 424.00 275.00 Z"/>
</g>
<g fill="None" fill-opacity="0.0" stroke="#F98A9A" stroke-opacity="0.95" stroke-width="0.3"><path d="
M 335.00 325.00 
C 372.40 328.29 411.26 313.21 424.00 275.00
C 422.23 273.78 420.12 273.94 418.00 274.00
C 418.96 279.01 410.87 274.74 408.08 279.08 C 405.30 283.42 400.55 285.30 400.00 291.00
C 398.01 287.21 394.28 288.54 395.00 293.00
C 390.12 291.64 384.84 298.36 382.00 302.00
C 375.74 296.20 370.96 310.54 365.00 308.00
C 364.93 315.65 353.67 312.62 353.00 318.00
C 347.24 312.98 341.34 318.86 336.00 316.00
C 338.74 318.30 337.58 321.10 334.00 321.00
C 334.01 322.35 333.95 323.98 335.00 325.00 Z"/>
</g>
<g fill="None" fill-opacity="0.0" stroke="#FA98A7" stroke-opacity="0.97" stroke-width="0.3"><path d="
M 227.00 290.00 
C 230.95 296.00 235.88 301.92 238.26 309.74 C 240.64 317.57 243.37 324.74 247.00 332.00
C 250.68 339.37 256.43 346.75 255.00 355.00
C 258.84 353.53 257.74 359.39 261.00 359.00
C 254.33 365.44 268.12 373.74 269.00 382.00
C 259.45 383.31 272.51 392.31 264.00 391.00
C 264.83 394.22 267.00 395.60 270.00 394.00
C 264.91 399.33 272.54 410.00 266.00 414.00
C 269.67 420.58 264.02 425.73 266.00 433.00
C 272.00 434.39 272.05 439.91 266.00 438.00
C 270.24 440.83 271.95 449.83 267.00 452.00
C 273.68 460.74 263.40 471.77 265.00 482.00
C 257.00 485.57 259.43 499.23 251.00 504.00
C 253.47 509.91 248.41 515.13 249.00 521.00
C 240.06 522.56 243.31 539.23 240.00 545.00
C 264.15 529.90 271.60 506.48 280.07 480.07 C 288.55 453.67 288.07 413.52 284.00 385.00
C 282.55 384.92 281.14 385.07 280.00 386.00
C 279.36 380.88 278.67 375.97 275.90 372.10 C 273.14 368.22 275.10 361.58 270.00 361.00
C 271.50 357.49 271.21 351.74 267.00 352.00
C 267.34 338.32 260.59 327.26 261.00 315.00
C 255.72 316.22 255.79 310.15 257.00 307.00
C 247.77 305.18 241.86 293.74 233.00 289.00
C 236.77 282.32 227.06 280.27 224.00 277.00
C 225.16 281.23 225.97 285.76 227.00 290.00 Z"/>
</g>
<g fill="None" fill-opacity="0.0" stroke="#FCD5DB" stroke-opacity="0.97" stroke-width="0.3"><path d="
M 238.00 426.00 
C 240.12 440.59 240.83 456.97 229.00 469.00
C 235.90 473.97 222.53 479.12 227.00 486.00
C 219.72 483.13 218.69 501.79 210.00 499.00
C 202.45 510.70 192.64 520.44 200.00 535.00
C 202.79 534.24 203.40 529.06 207.00 528.00
C 202.83 524.53 209.64 514.88 214.00 520.00
C 216.34 515.71 211.81 512.52 214.00 508.00
C 218.78 508.33 219.79 511.37 219.00 516.00
C 227.10 512.31 229.10 512.28 237.67 513.33 C 246.24 514.38 242.98 503.18 246.99 497.99 C 250.99 492.80 253.25 483.83 253.99 476.99 C 254.74 470.15 256.22 462.51 255.00 455.00
C 259.69 452.17 257.82 441.73 257.66 436.32 C 257.50 430.91 252.58 421.59 257.00 415.00
C 256.89 412.33 254.36 411.80 254.00 409.00
C 259.87 404.95 250.51 400.63 257.00 396.00
C 256.57 391.71 255.11 397.89 253.00 397.00
C 254.64 391.52 256.25 384.27 252.00 380.00
C 256.87 373.58 252.37 365.86 253.20 357.75 C 254.03 349.65 243.44 339.99 247.00 332.00
C 243.37 324.74 240.64 317.57 238.26 309.74 C 235.88 301.92 230.95 296.00 227.00 290.00
C 237.58 333.36 243.68 380.17 238.00 426.00 Z"/>
</g>
<g fill="None" fill-opacity="0.0" stroke="#F9A7B3" stroke-opacity="0.25" stroke-width="0.3"><path d="
M 0.00 324.00 
C 1.89 320.32 0.91 314.51 1.00 310.00
C 1.00 310.00 0.50 310.00 0.00 310.00
L 0.00 324.00 Z"/>
</g>
<g fill="None" fill-opacity="0.0" stroke="#FDEDF0" stroke-opacity="1.00" stroke-width="0.3"><path d="
M 151.00 311.00 
C 148.67 312.93 146.19 311.19 144.00 310.00
C 144.61 317.76 132.15 326.80 138.00 332.00
C 134.68 330.69 134.52 335.16 132.00 335.00
C 133.90 337.88 132.53 338.72 130.00 339.00
C 135.71 345.21 125.16 348.12 126.00 355.00
C 129.01 354.24 131.40 356.16 135.00 356.00
C 132.43 359.72 131.84 365.45 129.00 369.00
C 133.57 369.39 131.13 372.13 134.00 374.00
C 133.73 377.47 129.36 373.80 130.00 377.00
C 131.55 378.82 134.91 377.80 137.00 379.00
C 135.03 376.61 139.21 375.89 141.00 376.00
C 139.98 379.60 140.30 383.14 141.00 387.00
C 143.40 382.39 148.10 384.87 149.00 389.00
C 148.31 385.94 151.50 385.67 152.00 383.00
C 153.43 386.48 156.26 388.74 157.00 393.00
C 160.17 391.06 161.90 395.57 164.00 397.00
C 166.03 395.29 168.04 391.71 166.00 389.00
C 161.39 395.08 159.98 385.50 156.00 382.00
C 161.07 383.32 159.95 378.12 159.00 375.00
C 166.59 377.31 164.53 365.57 166.00 361.00
C 170.43 364.09 167.09 355.17 173.00 357.00
C 172.95 353.90 171.34 350.81 176.00 352.00
C 171.55 344.84 180.31 340.67 176.00 334.00
C 174.07 335.24 175.47 338.92 173.00 340.00
C 171.66 337.29 169.42 331.60 174.00 330.00
C 173.14 327.54 169.99 327.73 168.00 327.00
C 166.28 329.99 169.40 331.87 169.00 335.00
C 162.16 337.37 165.21 330.65 160.00 331.00
C 165.07 325.98 159.47 321.20 153.00 320.00
C 154.83 316.38 149.85 314.82 151.00 311.00 Z"/>
</g>
<g fill="None" fill-opacity="0.0" stroke="#FBB7C2" stroke-opacity="0.98" stroke-width="0.3"><path d="
M 200.00 535.00 
C 203.92 542.76 211.26 547.26 219.00 550.00
L 230.00 550.00
C 233.29 548.96 236.94 546.92 240.00 545.00
C 243.31 539.23 240.06 522.56 249.00 521.00
C 248.41 515.13 253.47 509.91 251.00 504.00
C 259.43 499.23 257.00 485.57 265.00 482.00
C 263.40 471.77 273.68 460.74 267.00 452.00
C 271.95 449.83 270.24 440.83 266.00 438.00
C 272.05 439.91 272.00 434.39 266.00 433.00
C 264.02 425.73 269.67 420.58 266.00 414.00
C 272.54 410.00 264.91 399.33 270.00 394.00
C 267.00 395.60 264.83 394.22 264.00 391.00
C 272.51 392.31 259.45 383.31 269.00 382.00
C 268.12 373.74 254.33 365.44 261.00 359.00
C 257.74 359.39 258.84 353.53 255.00 355.00
C 256.43 346.75 250.68 339.37 247.00 332.00
C 243.44 339.99 254.03 349.65 253.20 357.75 C 252.37 365.86 256.87 373.58 252.00 380.00
C 256.25 384.27 254.64 391.52 253.00 397.00
C 255.11 397.89 256.57 391.71 257.00 396.00
C 250.51 400.63 259.87 404.95 254.00 409.00
C 254.36 411.80 256.89 412.33 257.00 415.00
C 252.58 421.59 257.50 430.91 257.66 436.32 C 257.82 441.73 259.69 452.17 255.00 455.00
C 256.22 462.51 254.74 470.15 253.99 476.99 C 253.25 483.83 250.99 492.80 246.99 497.99 C 242.98 503.18 246.24 514.38 237.67 513.33 C 229.10 512.28 227.10 512.31 219.00 516.00
C 219.79 511.37 218.78 508.33 214.00 508.00
C 211.81 512.52 216.34 515.71 214.00 520.00
C 209.64 514.88 202.83 524.53 207.00 528.00
C 203.40 529.06 202.79 534.24 200.00 535.00 Z"/>
</g>
<g fill="None" fill-opacity="0.0" stroke="#FCE7EB" stroke-opacity="0.85" stroke-width="0.3"><path d="
M 210.00 499.00 
C 218.69 501.79 219.72 483.13 227.00 486.00
C 222.53 479.12 235.90 473.97 229.00 469.00
C 240.83 456.97 240.12 440.59 238.00 426.00
C 234.67 452.84 224.59 476.39 210.00 499.00 Z"/>
</g>
<g fill="#000000" fill-opacity="0.00" stroke="None">
<path d="
M 0.00 310.00 
C 0.50 310.00 1.00 310.00 1.00 310.00
C 1.64 278.00 28.31 254.41 55.23 239.23 C 82.15 224.05 121.14 212.73 153.00 211.00
C 161.56 210.54 171.07 210.44 179.00 209.00
C 176.71 208.24 174.19 208.19 172.00 207.00
C 154.65 202.23 136.81 201.31 119.00 198.00
C 106.57 195.69 94.33 190.67 83.00 185.00
C 64.46 175.73 54.10 166.54 40.23 149.77 C 26.36 133.00 24.54 108.83 29.00 88.00
C 30.04 83.17 31.11 80.22 33.00 76.00
C 45.12 48.86 74.46 35.99 104.00 38.00
C 117.07 38.89 136.14 49.60 143.30 35.30 C 150.46 21.00 159.23 16.25 172.08 9.08 C 184.92 1.90 204.97 3.22 218.22 7.78 C 231.48 12.33 241.43 19.10 250.75 30.25 C 260.07 41.39 263.77 56.01 266.00 70.00
C 272.45 110.55 243.93 145.13 226.00 178.00
C 224.46 180.82 221.73 186.73 222.00 189.00
C 223.08 185.78 230.52 180.68 233.00 178.00
C 238.20 172.37 243.51 166.49 249.00 161.00
C 265.43 144.57 283.30 130.45 303.00 119.00
C 317.28 110.70 332.68 105.21 349.00 102.00
C 352.00 101.41 354.86 101.17 358.00 101.00
C 362.55 100.75 367.45 100.69 372.00 101.00
C 403.26 103.13 444.62 142.16 418.00 173.00
C 408.41 184.11 399.35 192.71 409.77 205.23 C 420.19 217.75 425.41 227.61 426.00 243.00
C 426.00 242.98 427.00 243.00 427.00 243.00
L 427.00 0.00
L 0.00 0.00
L 0.00 310.00 Z"/>
</g>
<g fill="#FBAEBA" fill-opacity="0.98" stroke="None">
<path d="
M 104.00 38.00 
C 106.26 39.44 102.34 42.16 103.00 44.00
C 106.10 45.05 108.13 42.92 112.00 43.00
C 116.12 48.08 117.76 56.89 125.00 55.00
C 123.01 58.06 122.86 61.87 124.00 66.00
C 127.94 66.06 131.70 66.52 133.00 70.00
C 139.15 63.95 142.69 76.84 150.00 71.00
C 149.84 78.23 159.21 74.09 161.00 80.00
C 166.02 77.36 165.11 71.31 171.00 76.00
C 169.33 72.39 172.58 67.34 177.00 68.00
C 173.11 63.27 185.77 63.79 180.00 59.00
C 182.29 59.76 184.81 59.81 187.00 61.00
C 185.76 63.26 183.76 61.86 182.00 63.00
C 186.89 64.32 191.09 65.71 194.00 69.00
C 191.84 65.49 196.37 64.17 198.00 62.00
C 200.29 64.25 205.61 64.67 207.00 69.00
C 212.66 64.79 215.68 69.27 220.00 72.00
C 217.06 75.20 225.43 79.20 219.00 81.00
C 223.05 88.03 217.78 96.13 217.22 104.22 C 216.67 112.32 215.93 119.47 218.00 127.00
C 215.98 126.60 211.82 133.17 213.00 136.00
C 210.42 134.52 209.48 136.24 208.00 138.00
C 210.96 140.08 210.91 140.72 212.00 144.00
C 208.16 145.47 209.26 139.61 206.00 140.00
C 206.67 143.50 205.67 148.79 201.00 148.00
C 203.34 151.42 202.72 157.26 197.00 156.00
C 198.50 159.53 195.93 163.81 193.00 166.00
C 196.64 168.09 195.62 172.98 192.00 174.00
C 190.88 170.21 189.86 168.13 186.00 168.00
C 186.18 173.21 185.53 178.23 184.00 183.00
C 179.09 180.22 177.68 183.63 177.00 188.00
C 169.89 190.96 162.98 185.47 158.00 191.00
C 154.93 187.76 150.96 193.45 152.00 186.00
C 148.38 185.13 150.15 190.51 147.00 190.00
C 144.72 182.77 139.25 193.10 133.92 192.06 C 128.59 191.03 120.64 191.54 119.00 198.00
C 136.81 201.31 154.65 202.23 172.00 207.00
C 174.33 199.99 182.76 191.34 189.00 195.00
C 190.77 189.75 190.17 195.73 193.00 194.00
C 190.95 189.38 191.93 185.12 193.00 182.00
C 196.90 180.97 196.87 186.61 201.00 185.00
C 199.47 178.54 205.24 177.13 210.10 173.10 C 214.96 169.06 218.85 164.10 224.00 161.00
C 220.46 157.56 223.17 150.43 228.00 153.00
C 228.06 146.32 231.55 141.88 233.92 137.87 C 236.28 133.86 240.00 128.74 238.00 125.00
C 242.08 119.26 253.30 111.57 249.00 104.00
C 250.28 103.48 251.74 102.73 253.00 101.00
C 250.99 100.02 250.36 97.64 249.00 96.00
C 258.18 93.34 253.95 82.07 261.00 78.00
C 256.30 74.91 263.20 70.91 266.00 70.00
C 263.77 56.01 260.07 41.39 250.75 30.25 C 241.43 19.10 231.48 12.33 218.22 7.78 C 204.97 3.22 184.92 1.90 172.08 9.08 C 159.23 16.25 150.46 21.00 143.30 35.30 C 136.14 49.60 117.07 38.89 104.00 38.00 Z"/>
</g>
<g fill="#FBCBD4" fill-opacity="0.98" stroke="None">
<path d="
M 33.00 76.00 
C 37.02 73.69 47.66 76.34 50.69 71.69 C 53.72 67.05 59.83 65.65 62.00 60.00
C 65.74 61.04 68.60 60.77 72.08 59.94 C 75.56 59.10 77.67 64.65 79.00 60.00
C 80.59 64.79 82.61 61.96 86.03 62.98 C 89.44 64.00 95.08 63.99 94.00 60.00
C 96.56 60.53 95.03 67.42 99.68 66.32 C 104.32 65.22 106.08 69.98 107.00 65.00
C 110.91 64.80 112.89 69.92 117.00 67.00
C 118.00 70.17 123.49 73.22 127.70 72.65 C 131.90 72.08 138.69 76.51 136.00 80.00
C 141.05 79.88 142.97 84.96 147.00 80.00
C 149.89 82.89 154.14 87.32 158.00 84.00
C 160.75 87.22 159.23 92.39 165.00 92.00
C 164.14 85.50 167.23 80.62 174.00 81.00
C 175.81 83.79 176.77 84.92 177.00 88.00
C 183.16 89.98 185.41 85.11 190.00 84.00
C 189.42 86.77 188.77 91.19 185.00 89.00
C 186.61 95.18 199.69 87.79 198.00 97.00
C 206.07 94.92 205.43 105.09 202.08 110.08 C 198.74 115.07 196.40 119.81 200.00 125.00
C 195.56 123.38 195.24 126.53 200.00 126.00
C 198.94 131.04 196.30 134.52 202.00 138.00
C 199.77 140.47 196.52 143.75 199.00 146.00
C 193.54 147.31 191.99 153.49 193.00 159.00
C 190.40 159.40 190.17 162.03 188.00 163.00
C 180.91 155.28 177.07 146.24 174.07 135.93 C 171.08 125.61 171.28 113.01 163.00 107.00
C 163.11 110.54 165.66 114.40 164.00 117.00
C 167.17 126.91 171.58 137.33 174.92 147.08 C 178.26 156.83 183.65 168.60 178.00 177.00
C 169.23 175.54 159.99 176.30 153.00 173.00
C 150.83 176.87 145.67 178.39 140.00 178.00
C 141.04 183.21 133.94 182.16 130.75 181.20 C 127.56 180.24 123.73 179.76 121.00 177.00
C 119.53 178.15 122.96 180.21 123.00 182.00
C 120.90 183.67 115.70 183.74 116.00 180.00
C 114.29 183.92 111.39 179.91 112.00 177.00
C 104.67 176.67 98.36 182.61 91.00 177.00
C 89.40 182.12 84.79 181.06 83.00 185.00
C 94.33 190.67 106.57 195.69 119.00 198.00
C 120.64 191.54 128.59 191.03 133.92 192.06 C 139.25 193.10 144.72 182.77 147.00 190.00
C 150.15 190.51 148.38 185.13 152.00 186.00
C 150.96 193.45 154.93 187.76 158.00 191.00
C 162.98 185.47 169.89 190.96 177.00 188.00
C 177.68 183.63 179.09 180.22 184.00 183.00
C 185.53 178.23 186.18 173.21 186.00 168.00
C 189.86 168.13 190.88 170.21 192.00 174.00
C 195.62 172.98 196.64 168.09 193.00 166.00
C 195.93 163.81 198.50 159.53 197.00 156.00
C 202.72 157.26 203.34 151.42 201.00 148.00
C 205.67 148.79 206.67 143.50 206.00 140.00
C 209.26 139.61 208.16 145.47 212.00 144.00
C 210.91 140.72 210.96 140.08 208.00 138.00
C 209.48 136.24 210.42 134.52 213.00 136.00
C 211.82 133.17 215.98 126.60 218.00 127.00
C 215.93 119.47 216.67 112.32 217.22 104.22 C 217.78 96.13 223.05 88.03 219.00 81.00
C 225.43 79.20 217.06 75.20 220.00 72.00
C 215.68 69.27 212.66 64.79 207.00 69.00
C 205.61 64.67 200.29 64.25 198.00 62.00
C 196.37 64.17 191.84 65.49 194.00 69.00
C 191.09 65.71 186.89 64.32 182.00 63.00
C 183.76 61.86 185.76 63.26 187.00 61.00
C 184.81 59.81 182.29 59.76 180.00 59.00
C 185.77 63.79 173.11 63.27 177.00 68.00
C 172.58 67.34 169.33 72.39 171.00 76.00
C 165.11 71.31 166.02 77.36 161.00 80.00
C 159.21 74.09 149.84 78.23 150.00 71.00
C 142.69 76.84 139.15 63.95 133.00 70.00
C 131.70 66.52 127.94 66.06 124.00 66.00
C 122.86 61.87 123.01 58.06 125.00 55.00
C 117.76 56.89 116.12 48.08 112.00 43.00
C 108.13 42.92 106.10 45.05 103.00 44.00
C 102.34 42.16 106.26 39.44 104.00 38.00
C 74.46 35.99 45.12 48.86 33.00 76.00 Z"/>
</g>
<g fill="#FCE0E5" fill-opacity="0.99" stroke="None">
<path d="
M 33.00 76.00 
C 31.11 80.22 30.04 83.17 29.00 88.00
C 29.10 87.93 32.41 89.06 33.00 88.00
C 32.76 91.11 36.31 92.25 35.00 96.00
C 39.83 98.50 40.35 94.23 38.00 91.00
C 40.59 91.53 40.32 95.24 43.00 95.00
C 43.55 92.72 45.99 91.41 46.00 89.00
C 48.02 88.74 51.83 91.27 49.00 93.00
C 50.54 95.02 52.89 92.55 55.00 94.00
C 56.71 91.13 53.76 90.75 53.00 88.00
C 56.54 85.09 60.31 85.98 62.00 81.00
C 65.07 85.26 73.20 81.80 74.00 77.00
C 81.92 76.81 88.11 82.24 93.00 87.00
C 95.02 85.14 99.76 83.93 99.00 89.00
C 101.41 84.57 106.07 87.69 108.00 92.00
C 111.12 90.51 118.39 92.04 120.00 97.00
C 123.27 94.59 121.66 86.52 128.00 91.00
C 127.87 88.05 125.12 85.97 125.00 83.00
C 128.32 87.00 135.32 84.44 133.00 91.00
C 141.02 92.41 146.18 95.50 154.00 91.00
C 162.07 95.81 160.20 108.09 164.00 117.00
C 165.66 114.40 163.11 110.54 163.00 107.00
C 171.28 113.01 171.08 125.61 174.07 135.93 C 177.07 146.24 180.91 155.28 188.00 163.00
C 190.17 162.03 190.40 159.40 193.00 159.00
C 191.99 153.49 193.54 147.31 199.00 146.00
C 196.52 143.75 199.77 140.47 202.00 138.00
C 196.30 134.52 198.94 131.04 200.00 126.00
C 195.24 126.53 195.56 123.38 200.00 125.00
C 196.40 119.81 198.74 115.07 202.08 110.08 C 205.43 105.09 206.07 94.92 198.00 97.00
C 199.69 87.79 186.61 95.18 185.00 89.00
C 188.77 91.19 189.42 86.77 190.00 84.00
C 185.41 85.11 183.16 89.98 177.00 88.00
C 176.77 84.92 175.81 83.79 174.00 81.00
C 167.23 80.62 164.14 85.50 165.00 92.00
C 159.23 92.39 160.75 87.22 158.00 84.00
C 154.14 87.32 149.89 82.89 147.00 80.00
C 142.97 84.96 141.05 79.88 136.00 80.00
C 138.69 76.51 131.90 72.08 127.70 72.65 C 123.49 73.22 118.00 70.17 117.00 67.00
C 112.89 69.92 110.91 64.80 107.00 65.00
C 106.08 69.98 104.32 65.22 99.68 66.32 C 95.03 67.42 96.56 60.53 94.00 60.00
C 95.08 63.99 89.44 64.00 86.03 62.98 C 82.61 61.96 80.59 64.79 79.00 60.00
C 77.67 64.65 75.56 59.10 72.08 59.94 C 68.60 60.77 65.74 61.04 62.00 60.00
C 59.83 65.65 53.72 67.05 50.69 71.69 C 47.66 76.34 37.02 73.69 33.00 76.00 Z"/>
</g>
<g fill="#FA97A6" fill-opacity="0.96" stroke="None">
<path d="
M 172.00 207.00 
C 174.19 208.19 176.71 208.24 179.00 209.00
C 171.07 210.44 161.56 210.54 153.00 211.00
C 157.13 212.17 160.10 222.61 166.00 219.00
C 167.36 222.26 168.78 225.55 170.00 229.00
C 172.80 227.34 172.59 221.27 173.00 228.00
C 176.06 228.07 180.48 232.41 186.00 233.00
C 183.32 235.54 186.97 237.49 187.00 240.00
C 189.52 239.87 188.87 236.98 191.00 237.00
C 197.92 239.91 205.24 252.76 215.00 251.00
C 214.43 248.70 214.59 246.32 214.00 244.00
C 207.98 243.08 205.72 238.50 204.67 233.33 C 203.62 228.16 194.25 227.33 198.00 221.00
C 194.16 222.74 189.77 220.88 192.00 216.00
C 188.78 217.30 188.72 220.74 186.00 222.00
C 188.02 219.86 185.14 217.59 186.00 215.00
C 190.68 218.73 189.85 214.60 186.00 213.00
C 186.50 209.60 191.06 210.78 191.32 207.32 C 191.58 203.86 193.04 201.12 197.00 202.00
C 199.34 197.38 194.82 194.07 197.00 190.00
C 199.19 194.36 202.53 191.55 206.00 191.00
C 204.40 185.67 209.96 188.24 211.68 184.68 C 213.40 181.12 214.87 177.98 219.00 181.00
C 216.56 175.17 224.83 173.24 226.00 178.00
C 243.93 145.13 272.45 110.55 266.00 70.00
C 263.20 70.91 256.30 74.91 261.00 78.00
C 253.95 82.07 258.18 93.34 249.00 96.00
C 250.36 97.64 250.99 100.02 253.00 101.00
C 251.74 102.73 250.28 103.48 249.00 104.00
C 253.30 111.57 242.08 119.26 238.00 125.00
C 240.00 128.74 236.28 133.86 233.92 137.87 C 231.55 141.88 228.06 146.32 228.00 153.00
C 223.17 150.43 220.46 157.56 224.00 161.00
C 218.85 164.10 214.96 169.06 210.10 173.10 C 205.24 177.13 199.47 178.54 201.00 185.00
C 196.87 186.61 196.90 180.97 193.00 182.00
C 191.93 185.12 190.95 189.38 193.00 194.00
C 190.17 195.73 190.77 189.75 189.00 195.00
C 182.76 191.34 174.33 199.99 172.00 207.00 Z"/>
</g>
<g fill="#FDECEF" fill-opacity="0.99" stroke="None">
<path d="
M 29.00 88.00 
C 24.54 108.83 26.36 133.00 40.23 149.77 C 54.10 166.54 64.46 175.73 83.00 185.00
C 84.79 181.06 89.40 182.12 91.00 177.00
C 98.36 182.61 104.67 176.67 112.00 177.00
C 111.39 179.91 114.29 183.92 116.00 180.00
C 115.70 183.74 120.90 183.67 123.00 182.00
C 122.96 180.21 119.53 178.15 121.00 177.00
C 123.73 179.76 127.56 180.24 130.75 181.20 C 133.94 182.16 141.04 183.21 140.00 178.00
C 145.67 178.39 150.83 176.87 153.00 173.00
C 159.99 176.30 169.23 175.54 178.00 177.00
C 183.65 168.60 178.26 156.83 174.92 147.08 C 171.58 137.33 167.17 126.91 164.00 117.00
C 160.20 108.09 162.07 95.81 154.00 91.00
C 146.18 95.50 141.02 92.41 133.00 91.00
C 135.32 84.44 128.32 87.00 125.00 83.00
C 125.12 85.97 127.87 88.05 128.00 91.00
C 121.66 86.52 123.27 94.59 120.00 97.00
C 118.39 92.04 111.12 90.51 108.00 92.00
C 106.07 87.69 101.41 84.57 99.00 89.00
C 99.76 83.93 95.02 85.14 93.00 87.00
C 88.11 82.24 81.92 76.81 74.00 77.00
C 73.20 81.80 65.07 85.26 62.00 81.00
C 60.31 85.98 56.54 85.09 53.00 88.00
C 53.76 90.75 56.71 91.13 55.00 94.00
C 52.89 92.55 50.54 95.02 49.00 93.00
C 51.83 91.27 48.02 88.74 46.00 89.00
C 45.99 91.41 43.55 92.72 43.00 95.00
C 40.32 95.24 40.59 91.53 38.00 91.00
C 40.35 94.23 39.83 98.50 35.00 96.00
C 36.31 92.25 32.76 91.11 33.00 88.00
C 32.41 89.06 29.10 87.93 29.00 88.00 Z"/>
</g>
<g fill="#FCDDE3" fill-opacity="0.99" stroke="None">
<path d="
M 349.00 102.00 
C 351.20 104.28 353.54 110.97 357.00 110.00
C 354.79 113.61 359.27 114.81 358.00 119.00
C 361.56 118.84 364.16 122.06 368.00 121.00
C 371.86 123.78 367.89 130.44 374.00 130.00
C 372.08 133.00 374.17 134.46 375.00 137.00
C 368.63 135.05 370.13 142.39 368.00 146.00
C 360.56 143.87 354.98 145.60 347.00 148.00
C 351.29 150.45 350.47 148.43 352.00 154.00
C 347.07 153.92 342.20 149.60 340.00 156.00
C 338.15 153.36 338.41 151.07 334.00 151.00
C 335.90 153.64 336.68 156.61 339.00 159.00
C 336.33 159.30 335.09 156.98 333.00 156.00
C 329.37 159.32 324.99 159.00 322.00 164.00
C 318.68 156.65 312.43 167.50 311.00 170.00
C 311.12 166.63 308.91 164.67 305.00 164.00
C 304.62 167.61 305.46 170.89 307.00 174.00
C 304.93 176.09 302.77 174.23 301.00 173.00
C 300.65 177.11 299.35 178.45 296.00 175.00
C 299.77 174.41 300.92 169.77 304.00 169.00
C 303.07 163.97 304.58 159.01 306.00 154.00
C 298.36 155.44 301.83 148.86 299.00 145.00
C 303.55 142.37 302.39 141.92 306.00 141.00
C 298.98 136.56 310.68 129.53 308.00 124.00
C 306.10 127.36 305.34 126.84 302.00 124.00
C 303.68 121.84 305.62 121.55 303.00 119.00
C 283.30 130.45 265.43 144.57 249.00 161.00
C 251.03 165.38 255.71 167.93 251.00 171.00
C 255.97 171.00 253.94 177.20 259.00 177.00
C 256.70 180.90 253.28 189.23 255.00 192.00
C 249.80 192.55 253.05 194.90 252.00 198.00
C 256.26 193.59 257.15 200.92 260.25 202.75 C 263.35 204.58 267.62 205.10 267.00 211.00
C 278.36 214.60 294.52 211.61 305.00 211.00 C 315.48 210.40 327.51 215.60 334.00 203.00
C 334.68 207.15 345.19 205.89 344.00 199.00
C 348.15 205.13 350.80 197.05 356.00 197.00
C 355.17 190.63 359.18 186.39 362.77 181.77 C 366.37 177.15 366.64 169.22 374.00 170.00
C 375.89 165.41 375.57 156.84 380.00 163.00
C 379.59 159.89 376.51 155.51 381.00 154.00
C 382.37 156.24 385.11 155.69 388.00 156.00
C 385.74 154.02 386.06 152.01 388.00 150.00
C 388.86 154.86 395.81 153.37 396.00 159.00
C 400.56 159.09 404.56 156.73 408.00 154.00
C 405.32 149.85 402.64 144.73 404.00 140.00
C 398.60 140.59 398.52 129.87 392.75 127.25 C 386.99 124.63 383.60 118.70 379.30 114.70 C 374.99 110.70 368.60 109.79 369.00 102.00
C 365.26 102.32 360.92 101.12 358.00 101.00
C 354.86 101.17 352.00 101.41 349.00 102.00 Z"/>
</g>
<g fill="#FBD9E0" fill-opacity="0.61" stroke="None">
<path d="
M 369.00 102.00 
C 370.25 101.89 371.32 101.12 372.00 101.00
C 367.45 100.69 362.55 100.75 358.00 101.00
C 360.92 101.12 365.26 102.32 369.00 102.00 Z"/>
</g>
<g fill="#FBC3CD" fill-opacity="0.99" stroke="None">
<path d="
M 369.00 102.00 
C 368.60 109.79 374.99 110.70 379.30 114.70 C 383.60 118.70 386.99 124.63 392.75 127.25 C 398.52 129.87 398.60 140.59 404.00 140.00
C 402.64 144.73 405.32 149.85 408.00 154.00
C 404.56 156.73 400.56 159.09 396.00 159.00
C 395.81 153.37 388.86 154.86 388.00 150.00
C 386.06 152.01 385.74 154.02 388.00 156.00
C 385.11 155.69 382.37 156.24 381.00 154.00
C 376.51 155.51 379.59 159.89 380.00 163.00
C 375.57 156.84 375.89 165.41 374.00 170.00
C 366.64 169.22 366.37 177.15 362.77 181.77 C 359.18 186.39 355.17 190.63 356.00 197.00
C 350.80 197.05 348.15 205.13 344.00 199.00
C 345.19 205.89 334.68 207.15 334.00 203.00
C 327.51 215.60 315.48 210.40 305.00 211.00 C 294.52 211.61 278.36 214.60 267.00 211.00
C 267.62 205.10 263.35 204.58 260.25 202.75 C 257.15 200.92 256.26 193.59 252.00 198.00
C 253.05 194.90 249.80 192.55 255.00 192.00
C 253.28 189.23 256.70 180.90 259.00 177.00
C 253.94 177.20 255.97 171.00 251.00 171.00
C 255.71 167.93 251.03 165.38 249.00 161.00
C 243.51 166.49 238.20 172.37 233.00 178.00
C 233.00 178.00 234.61 181.87 237.00 180.00
C 233.79 183.60 237.04 187.63 233.00 190.00
C 235.31 190.36 236.76 193.76 239.00 192.00
C 242.13 194.35 237.13 197.29 243.00 197.00
C 239.70 201.46 243.87 203.92 248.00 204.00
C 243.29 209.01 251.16 209.74 246.00 212.00
C 253.77 217.84 264.28 210.50 273.00 216.00
C 271.31 224.65 259.28 218.20 257.00 225.00
C 259.82 228.18 264.05 226.24 265.00 231.00
C 269.95 227.83 277.54 240.67 277.00 244.00
C 279.03 243.50 283.10 244.39 281.00 247.00
C 284.49 248.42 284.68 246.08 288.00 246.00
C 286.94 249.70 290.84 251.43 290.00 256.00
C 294.11 251.75 294.05 258.00 297.30 259.70 C 300.54 261.41 304.24 264.71 303.00 269.00
C 305.96 270.93 311.00 271.93 313.00 276.00
C 315.37 274.11 316.52 273.62 319.00 272.00
C 321.53 274.58 316.29 274.45 317.00 277.00
C 321.04 273.42 328.38 276.93 329.00 271.00
C 332.80 270.11 333.86 274.37 338.00 273.00
C 333.80 264.88 344.79 270.30 344.00 263.00
C 346.56 263.60 344.16 268.89 349.00 265.00
C 353.19 273.22 366.95 269.92 368.92 261.92 C 370.90 253.92 378.15 246.82 387.00 249.00
C 387.12 245.86 388.48 243.07 389.00 240.00
C 387.29 238.81 384.88 237.35 385.00 235.00
C 375.01 236.79 368.64 222.22 368.00 215.00
C 371.11 214.91 369.24 209.09 374.00 211.00
C 372.84 206.70 372.61 200.33 379.00 201.00
C 380.92 192.81 395.30 193.77 391.00 181.00
C 395.64 182.14 393.24 175.54 396.00 174.00
C 397.89 175.26 397.05 178.80 399.00 180.00
C 400.50 177.37 401.29 176.32 404.00 176.00
C 402.75 172.79 404.48 169.73 408.00 169.00
C 404.39 173.16 409.48 175.75 409.00 171.00
C 411.89 172.64 414.04 173.06 415.00 169.00
C 416.82 169.60 417.15 171.56 418.00 173.00
C 444.62 142.16 403.26 103.13 372.00 101.00
C 371.32 101.12 370.25 101.89 369.00 102.00 Z"/>
</g>
<g fill="#FDEAEE" fill-opacity="0.99" stroke="None">
<path d="
M 303.00 119.00 
C 305.62 121.55 303.68 121.84 302.00 124.00
C 305.34 126.84 306.10 127.36 308.00 124.00
C 310.68 129.53 298.98 136.56 306.00 141.00
C 302.39 141.92 303.55 142.37 299.00 145.00
C 301.83 148.86 298.36 155.44 306.00 154.00
C 304.58 159.01 303.07 163.97 304.00 169.00
C 300.92 169.77 299.77 174.41 296.00 175.00
C 299.35 178.45 300.65 177.11 301.00 173.00
C 302.77 174.23 304.93 176.09 307.00 174.00
C 305.46 170.89 304.62 167.61 305.00 164.00
C 308.91 164.67 311.12 166.63 311.00 170.00
C 312.43 167.50 318.68 156.65 322.00 164.00
C 324.99 159.00 329.37 159.32 333.00 156.00
C 335.09 156.98 336.33 159.30 339.00 159.00
C 336.68 156.61 335.90 153.64 334.00 151.00
C 338.41 151.07 338.15 153.36 340.00 156.00
C 342.20 149.60 347.07 153.92 352.00 154.00
C 350.47 148.43 351.29 150.45 347.00 148.00
C 354.98 145.60 360.56 143.87 368.00 146.00
C 370.13 142.39 368.63 135.05 375.00 137.00
C 374.17 134.46 372.08 133.00 374.00 130.00
C 367.89 130.44 371.86 123.78 368.00 121.00
C 364.16 122.06 361.56 118.84 358.00 119.00
C 359.27 114.81 354.79 113.61 357.00 110.00
C 353.54 110.97 351.20 104.28 349.00 102.00
C 332.68 105.21 317.28 110.70 303.00 119.00 Z"/>
</g>
<g fill="#FAA4B2" fill-opacity="0.99" stroke="None">
<path d="
M 233.00 178.00 
C 230.52 180.68 223.08 185.78 222.00 189.00
C 222.19 190.67 223.80 193.90 227.00 192.00
C 228.47 199.11 229.14 203.58 227.00 211.00
C 232.34 213.04 237.55 215.37 243.00 217.00
C 242.21 222.23 234.16 219.91 232.00 224.00
C 233.79 230.58 238.56 236.49 242.00 243.00
C 246.68 241.37 248.31 246.19 246.00 250.00
C 250.12 249.86 251.32 253.86 254.00 255.00
C 247.83 263.25 271.17 266.33 264.00 274.00
C 270.87 270.96 272.76 279.15 278.00 280.00
C 275.54 284.63 280.65 288.53 279.00 293.00
C 280.65 293.82 283.24 295.98 284.00 293.00
C 287.60 292.76 284.57 296.45 284.00 298.00
C 287.37 297.60 289.58 297.60 293.00 298.00
C 295.59 301.86 302.45 305.76 307.00 303.00
C 308.56 306.43 314.68 305.56 318.25 306.19 C 321.81 306.83 325.93 314.00 331.00 315.00
C 332.44 319.32 327.18 316.81 326.00 319.00
C 325.34 320.79 328.91 322.96 327.00 324.00
C 329.12 324.30 332.31 324.76 335.00 325.00
C 333.95 323.98 334.01 322.35 334.00 321.00
C 337.58 321.10 338.74 318.30 336.00 316.00
C 341.34 318.86 347.24 312.98 353.00 318.00
C 353.67 312.62 364.93 315.65 365.00 308.00
C 370.96 310.54 375.74 296.20 382.00 302.00
C 384.84 298.36 390.12 291.64 395.00 293.00
C 394.28 288.54 398.01 287.21 400.00 291.00
C 400.55 285.30 405.30 283.42 408.08 279.08 C 410.87 274.74 418.96 279.01 418.00 274.00
C 420.12 273.94 422.23 273.78 424.00 275.00
C 425.31 271.08 425.84 267.29 426.00 263.00
C 426.25 256.40 426.25 249.60 426.00 243.00
C 425.41 227.61 420.19 217.75 409.77 205.23 C 399.35 192.71 408.41 184.11 418.00 173.00
C 417.15 171.56 416.82 169.60 415.00 169.00
C 414.04 173.06 411.89 172.64 409.00 171.00
C 409.48 175.75 404.39 173.16 408.00 169.00
C 404.48 169.73 402.75 172.79 404.00 176.00
C 401.29 176.32 400.50 177.37 399.00 180.00
C 397.05 178.80 397.89 175.26 396.00 174.00
C 393.24 175.54 395.64 182.14 391.00 181.00
C 395.30 193.77 380.92 192.81 379.00 201.00
C 372.61 200.33 372.84 206.70 374.00 211.00
C 369.24 209.09 371.11 214.91 368.00 215.00
C 368.64 222.22 375.01 236.79 385.00 235.00
C 384.88 237.35 387.29 238.81 389.00 240.00
C 388.48 243.07 387.12 245.86 387.00 249.00
C 378.15 246.82 370.90 253.92 368.92 261.92 C 366.95 269.92 353.19 273.22 349.00 265.00
C 344.16 268.89 346.56 263.60 344.00 263.00
C 344.79 270.30 333.80 264.88 338.00 273.00
C 333.86 274.37 332.80 270.11 329.00 271.00
C 328.38 276.93 321.04 273.42 317.00 277.00
C 316.29 274.45 321.53 274.58 319.00 272.00
C 316.52 273.62 315.37 274.11 313.00 276.00
C 311.00 271.93 305.96 270.93 303.00 269.00
C 304.24 264.71 300.54 261.41 297.30 259.70 C 294.05 258.00 294.11 251.75 290.00 256.00
C 290.84 251.43 286.94 249.70 288.00 246.00
C 284.68 246.08 284.49 248.42 281.00 247.00
C 283.10 244.39 279.03 243.50 277.00 244.00
C 277.54 240.67 269.95 227.83 265.00 231.00
C 264.05 226.24 259.82 228.18 257.00 225.00
C 259.28 218.20 271.31 224.65 273.00 216.00
C 264.28 210.50 253.77 217.84 246.00 212.00
C 251.16 209.74 243.29 209.01 248.00 204.00
C 243.87 203.92 239.70 201.46 243.00 197.00
C 237.13 197.29 242.13 194.35 239.00 192.00
C 236.76 193.76 235.31 190.36 233.00 190.00
C 237.04 187.63 233.79 183.60 237.00 180.00
C 234.61 181.87 233.00 178.00 233.00 178.00 Z"/>
</g>
<g fill="#F97E8F" fill-opacity="0.96" stroke="None">
<path d="
M 215.00 251.00 
C 215.21 251.87 215.69 253.77 216.00 255.00
C 217.76 262.04 222.08 270.02 224.00 277.00
C 227.06 280.27 236.77 282.32 233.00 289.00
C 241.86 293.74 247.77 305.18 257.00 307.00
C 255.79 310.15 255.72 316.22 261.00 315.00
C 260.59 327.26 267.34 338.32 267.00 352.00
C 271.21 351.74 271.50 357.49 270.00 361.00
C 275.10 361.58 273.14 368.22 275.90 372.10 C 278.67 375.97 279.36 380.88 280.00 386.00
C 281.14 385.07 282.55 384.92 284.00 385.00
C 279.62 354.33 267.40 323.96 258.00 295.00
C 253.20 290.20 240.92 284.97 240.00 276.00
C 231.79 274.69 226.42 265.73 223.79 258.77 C 221.15 251.81 213.70 243.85 217.00 235.00
C 228.41 250.75 243.06 265.56 254.00 282.00
C 273.65 305.45 297.85 319.84 327.00 324.00
C 328.91 322.96 325.34 320.79 326.00 319.00
C 327.18 316.81 332.44 319.32 331.00 315.00
C 325.93 314.00 321.81 306.83 318.25 306.19 C 314.68 305.56 308.56 306.43 307.00 303.00
C 302.45 305.76 295.59 301.86 293.00 298.00
C 289.58 297.60 287.37 297.60 284.00 298.00
C 284.57 296.45 287.60 292.76 284.00 293.00
C 283.24 295.98 280.65 293.82 279.00 293.00
C 280.65 288.53 275.54 284.63 278.00 280.00
C 272.76 279.15 270.87 270.96 264.00 274.00
C 271.17 266.33 247.83 263.25 254.00 255.00
C 251.32 253.86 250.12 249.86 246.00 250.00
C 248.31 246.19 246.68 241.37 242.00 243.00
C 238.56 236.49 233.79 230.58 232.00 224.00
C 234.16 219.91 242.21 222.23 243.00 217.00
C 237.55 215.37 232.34 213.04 227.00 211.00
C 229.14 203.58 228.47 199.11 227.00 192.00
C 223.80 193.90 222.19 190.67 222.00 189.00
C 221.73 186.73 224.46 180.82 226.00 178.00
C 224.83 173.24 216.56 175.17 219.00 181.00
C 214.87 177.98 213.40 181.12 211.68 184.68 C 209.96 188.24 204.40 185.67 206.00 191.00
C 202.53 191.55 199.19 194.36 197.00 190.00
C 194.82 194.07 199.34 197.38 197.00 202.00
C 193.04 201.12 191.58 203.86 191.32 207.32 C 191.06 210.78 186.50 209.60 186.00 213.00
C 189.85 214.60 190.68 218.73 186.00 215.00
C 185.14 217.59 188.02 219.86 186.00 222.00
C 188.72 220.74 188.78 217.30 192.00 216.00
C 189.77 220.88 194.16 222.74 198.00 221.00
C 194.25 227.33 203.62 228.16 204.67 233.33 C 205.72 238.50 207.98 243.08 214.00 244.00
C 214.59 246.32 214.43 248.70 215.00 251.00 Z"/>
</g>
<g fill="#FBB4C0" fill-opacity="0.97" stroke="None">
<path d="
M 1.00 310.00 
C 0.91 314.51 1.89 320.32 0.00 324.00
L 0.00 325.00
C 2.40 335.91 5.76 346.50 13.30 355.70 C 20.85 364.90 29.59 369.33 41.07 371.93 C 52.56 374.53 70.81 366.65 81.00 374.00
C 78.25 365.14 81.20 352.08 76.00 343.00
C 73.41 345.77 72.69 340.28 70.00 343.00
C 75.46 337.99 61.10 330.58 59.00 337.00
C 58.67 318.82 48.93 343.36 43.00 344.00
C 47.09 339.46 40.41 343.48 40.00 339.00
C 38.30 340.72 39.97 344.29 37.00 345.00
C 36.68 343.67 35.54 341.88 33.00 342.00
C 33.36 336.42 32.49 333.16 33.98 326.97 C 35.46 320.79 27.87 317.84 30.00 312.00
C 34.95 314.36 34.14 306.36 32.00 304.00
C 37.50 305.10 41.70 299.31 41.00 294.00
C 44.97 293.71 47.89 287.15 45.00 285.00
C 46.33 281.82 47.63 285.10 50.00 285.00
C 49.70 282.96 48.71 279.73 46.00 280.00
C 50.26 276.45 43.49 272.86 45.00 268.00
C 50.56 264.53 58.54 259.86 64.23 255.23 C 69.92 250.60 77.61 247.57 79.00 242.00
C 82.31 245.13 87.41 241.96 87.00 238.00
C 89.03 242.00 93.55 235.07 93.00 241.00
C 98.77 238.28 104.96 239.53 104.00 232.00
C 108.19 235.25 121.29 235.46 122.00 226.00
C 126.63 229.08 131.62 234.05 136.00 235.00
C 140.48 233.58 140.72 230.48 146.00 231.00
C 146.02 233.28 139.76 233.24 144.00 234.00
C 143.40 237.53 147.08 236.00 148.00 237.00
C 152.38 236.47 152.45 232.59 156.25 230.25 C 160.04 227.91 163.50 232.25 167.00 229.00
C 170.36 231.16 173.21 234.68 173.00 239.00
C 175.82 238.63 178.28 240.76 181.00 237.00
C 180.44 241.35 178.58 243.08 178.00 247.00
C 180.47 244.88 181.49 250.47 179.00 251.00
C 181.56 253.22 183.97 247.79 182.00 246.00
C 186.17 243.20 190.32 250.17 193.00 246.00
C 194.82 248.58 193.67 252.02 194.00 255.00
C 201.91 256.43 209.09 252.11 216.00 255.00
C 215.69 253.77 215.21 251.87 215.00 251.00
C 205.24 252.76 197.92 239.91 191.00 237.00
C 188.87 236.98 189.52 239.87 187.00 240.00
C 186.97 237.49 183.32 235.54 186.00 233.00
C 180.48 232.41 176.06 228.07 173.00 228.00
C 172.59 221.27 172.80 227.34 170.00 229.00
C 168.78 225.55 167.36 222.26 166.00 219.00
C 160.10 222.61 157.13 212.17 153.00 211.00
C 121.14 212.73 82.15 224.05 55.23 239.23 C 28.31 254.41 1.64 278.00 1.00 310.00 Z"/>
</g>
<g fill="#FBCBD4" fill-opacity="0.99" stroke="None">
<path d="
M 81.00 374.00 
C 87.17 378.45 89.17 386.88 92.92 393.08 C 96.68 399.28 101.96 404.82 108.00 409.00
C 107.15 406.88 111.31 404.04 108.00 401.00
C 115.74 401.64 109.25 393.55 113.71 389.71 C 118.16 385.86 113.39 377.04 108.00 377.00
C 109.18 373.22 113.14 377.61 115.00 375.00
C 114.47 371.48 111.08 375.69 110.00 373.00
C 112.49 370.62 117.09 367.48 113.00 364.00
C 118.66 367.36 116.22 358.64 120.00 357.00
C 114.71 354.86 117.63 342.54 110.00 346.00
C 110.10 342.77 114.04 343.90 114.00 341.00
C 108.60 341.14 113.15 336.88 113.00 334.00
C 109.60 335.31 107.47 331.50 109.00 329.00
C 105.96 329.98 101.28 328.50 101.00 323.00
C 97.08 325.28 94.33 319.73 92.00 325.00
C 89.90 322.83 88.64 321.18 86.00 324.00
C 83.03 320.48 76.74 318.01 71.93 320.93 C 67.11 323.85 61.90 320.83 58.00 323.00
C 54.02 318.78 61.01 318.05 59.58 315.23 C 58.14 312.41 58.68 305.55 64.00 306.00
C 62.39 299.37 67.89 294.84 70.00 288.00
C 78.62 288.88 84.01 282.77 92.25 280.25 C 100.49 277.73 111.09 276.14 117.10 271.10 C 123.11 266.06 130.11 259.19 138.22 258.22 C 146.34 257.26 154.34 257.39 163.00 254.00
C 165.19 260.42 160.43 266.17 156.00 272.00
C 157.85 272.72 160.48 272.98 163.00 274.00
C 164.20 271.04 167.68 270.28 166.00 267.00
C 168.13 266.43 169.43 264.53 172.00 264.00
C 171.58 271.37 187.32 272.03 182.00 280.00
C 183.20 281.97 187.59 283.01 184.00 285.00
C 195.85 291.46 203.45 276.42 213.00 278.00
C 209.06 281.25 215.64 282.62 215.00 278.00
C 217.21 277.27 216.66 280.74 219.00 280.00
C 217.97 271.69 216.94 263.36 216.00 255.00
C 209.09 252.11 201.91 256.43 194.00 255.00
C 193.67 252.02 194.82 248.58 193.00 246.00
C 190.32 250.17 186.17 243.20 182.00 246.00
C 183.97 247.79 181.56 253.22 179.00 251.00
C 181.49 250.47 180.47 244.88 178.00 247.00
C 178.58 243.08 180.44 241.35 181.00 237.00
C 178.28 240.76 175.82 238.63 173.00 239.00
C 173.21 234.68 170.36 231.16 167.00 229.00
C 163.50 232.25 160.04 227.91 156.25 230.25 C 152.45 232.59 152.38 236.47 148.00 237.00
C 147.08 236.00 143.40 237.53 144.00 234.00
C 139.76 233.24 146.02 233.28 146.00 231.00
C 140.72 230.48 140.48 233.58 136.00 235.00
C 131.62 234.05 126.63 229.08 122.00 226.00
C 121.29 235.46 108.19 235.25 104.00 232.00
C 104.96 239.53 98.77 238.28 93.00 241.00
C 93.55 235.07 89.03 242.00 87.00 238.00
C 87.41 241.96 82.31 245.13 79.00 242.00
C 77.61 247.57 69.92 250.60 64.23 255.23 C 58.54 259.86 50.56 264.53 45.00 268.00
C 43.49 272.86 50.26 276.45 46.00 280.00
C 48.71 279.73 49.70 282.96 50.00 285.00
C 47.63 285.10 46.33 281.82 45.00 285.00
C 47.89 287.15 44.97 293.71 41.00 294.00
C 41.70 299.31 37.50 305.10 32.00 304.00
C 34.14 306.36 34.95 314.36 30.00 312.00
C 27.87 317.84 35.46 320.79 33.98 326.97 C 32.49 333.16 33.36 336.42 33.00 342.00
C 35.54 341.88 36.68 343.67 37.00 345.00
C 39.97 344.29 38.30 340.72 40.00 339.00
C 40.41 343.48 47.09 339.46 43.00 344.00
C 48.93 343.36 58.67 318.82 59.00 337.00
C 61.10 330.58 75.46 337.99 70.00 343.00
C 72.69 340.28 73.41 345.77 76.00 343.00
C 81.20 352.08 78.25 365.14 81.00 374.00 Z"/>
</g>
<g fill="#F55669" fill-opacity="0.98" stroke="None">
<path d="
M 258.00 295.00 
C 256.60 290.69 256.00 286.19 254.00 282.00
C 243.06 265.56 228.41 250.75 217.00 235.00
C 213.70 243.85 221.15 251.81 223.79 258.77 C 226.42 265.73 231.79 274.69 240.00 276.00
C 240.92 284.97 253.20 290.20 258.00 295.00 Z"/>
</g>
<g fill="#F899A6" fill-opacity="0.43" stroke="None">
<path d="
M 426.00 263.00 
C 426.00 263.02 427.00 263.00 427.00 263.00
L 427.00 243.00
C 427.00 243.00 426.00 242.98 426.00 243.00
C 426.25 249.60 426.25 256.40 426.00 263.00 Z"/>
</g>
<g fill="#FCE0E5" fill-opacity="0.99" stroke="None">
<path d="
M 108.00 409.00 
C 136.98 429.08 178.51 418.13 199.77 389.77 C 221.03 361.41 223.47 316.02 219.00 280.00
C 216.66 280.74 217.21 277.27 215.00 278.00
C 215.64 282.62 209.06 281.25 213.00 278.00
C 203.45 276.42 195.85 291.46 184.00 285.00
C 187.59 283.01 183.20 281.97 182.00 280.00
C 187.32 272.03 171.58 271.37 172.00 264.00
C 169.43 264.53 168.13 266.43 166.00 267.00
C 167.68 270.28 164.20 271.04 163.00 274.00
C 160.48 272.98 157.85 272.72 156.00 272.00
C 160.43 266.17 165.19 260.42 163.00 254.00
C 154.34 257.39 146.34 257.26 138.22 258.22 C 130.11 259.19 123.11 266.06 117.10 271.10 C 111.09 276.14 100.49 277.73 92.25 280.25 C 84.01 282.77 78.62 288.88 70.00 288.00
C 67.89 294.84 62.39 299.37 64.00 306.00
C 58.68 305.55 58.14 312.41 59.58 315.23 C 61.01 318.05 54.02 318.78 58.00 323.00
C 61.90 320.83 67.11 323.85 71.93 320.93 C 76.74 318.01 83.03 320.48 86.00 324.00
C 88.64 321.18 89.90 322.83 92.00 325.00
C 94.33 319.73 97.08 325.28 101.00 323.00
C 101.28 328.50 105.96 329.98 109.00 329.00
C 107.47 331.50 109.60 335.31 113.00 334.00
C 113.15 336.88 108.60 341.14 114.00 341.00
C 114.04 343.90 110.10 342.77 110.00 346.00
C 117.63 342.54 114.71 354.86 120.00 357.00
C 116.22 358.64 118.66 367.36 113.00 364.00
C 117.09 367.48 112.49 370.62 110.00 373.00
C 111.08 375.69 114.47 371.48 115.00 375.00
C 113.14 377.61 109.18 373.22 108.00 377.00
C 113.39 377.04 118.16 385.86 113.71 389.71 C 109.25 393.55 115.74 401.64 108.00 401.00
C 111.31 404.04 107.15 406.88 108.00 409.00
M 151.00 311.00 
C 149.85 314.82 154.83 316.38 153.00 320.00
C 159.47 321.20 165.07 325.98 160.00 331.00
C 165.21 330.65 162.16 337.37 169.00 335.00
C 169.40 331.87 166.28 329.99 168.00 327.00
C 169.99 327.73 173.14 327.54 174.00 330.00
C 169.42 331.60 171.66 337.29 173.00 340.00
C 175.47 338.92 174.07 335.24 176.00 334.00
C 180.31 340.67 171.55 344.84 176.00 352.00
C 171.34 350.81 172.95 353.90 173.00 357.00
C 167.09 355.17 170.43 364.09 166.00 361.00
C 164.53 365.57 166.59 377.31 159.00 375.00
C 159.95 378.12 161.07 383.32 156.00 382.00
C 159.98 385.50 161.39 395.08 166.00 389.00
C 168.04 391.71 166.03 395.29 164.00 397.00
C 161.90 395.57 160.17 391.06 157.00 393.00
C 156.26 388.74 153.43 386.48 152.00 383.00
C 151.50 385.67 148.31 385.94 149.00 389.00
C 148.10 384.87 143.40 382.39 141.00 387.00
C 140.30 383.14 139.98 379.60 141.00 376.00
C 139.21 375.89 135.03 376.61 137.00 379.00
C 134.91 377.80 131.55 378.82 130.00 377.00
C 129.36 373.80 133.73 377.47 134.00 374.00
C 131.13 372.13 133.57 369.39 129.00 369.00
C 131.84 365.45 132.43 359.72 135.00 356.00
C 131.40 356.16 129.01 354.24 126.00 355.00
C 125.16 348.12 135.71 345.21 130.00 339.00
C 132.53 338.72 133.90 337.88 132.00 335.00
C 134.52 335.16 134.68 330.69 138.00 332.00
C 132.15 326.80 144.61 317.76 144.00 310.00
C 146.19 311.19 148.67 312.93 151.00 311.00 Z"/>
</g>
<g fill="#000000" fill-opacity="0.00" stroke="None">
<path d="
M 219.00 280.00 
C 223.47 316.02 221.03 361.41 199.77 389.77 C 178.51 418.13 136.98 429.08 108.00 409.00
C 101.96 404.82 96.68 399.28 92.92 393.08 C 89.17 386.88 87.17 378.45 81.00 374.00
C 70.81 366.65 52.56 374.53 41.07 371.93 C 29.59 369.33 20.85 364.90 13.30 355.70 C 5.76 346.50 2.40 335.91 0.00 325.00
L 0.00 550.00
L 219.00 550.00
C 211.26 547.26 203.92 542.76 200.00 535.00
C 192.64 520.44 202.45 510.70 210.00 499.00
C 224.59 476.39 234.67 452.84 238.00 426.00
C 243.68 380.17 237.58 333.36 227.00 290.00
C 225.97 285.76 225.16 281.23 224.00 277.00
C 222.08 270.02 217.76 262.04 216.00 255.00
C 216.94 263.36 217.97 271.69 219.00 280.00 Z"/>
</g>
<g fill="#000000" fill-opacity="0.00" stroke="None">
<path d="
M 424.00 275.00 
C 411.26 313.21 372.40 328.29 335.00 325.00
C 332.31 324.76 329.12 324.30 327.00 324.00
C 297.85 319.84 273.65 305.45 254.00 282.00
C 256.00 286.19 256.60 290.69 258.00 295.00
C 267.40 323.96 279.62 354.33 284.00 385.00
C 288.07 413.52 288.55 453.67 280.07 480.07 C 271.60 506.48 264.15 529.90 240.00 545.00
C 236.94 546.92 233.29 548.96 230.00 550.00
L 427.00 550.00
L 427.00 263.00
C 427.00 263.00 426.00 263.02 426.00 263.00
C 425.84 267.29 425.31 271.08 424.00 275.00 Z"/>
</g>
<g fill="#F98A9A" fill-opacity="0.95" stroke="None">
<path d="
M 335.00 325.00 
C 372.40 328.29 411.26 313.21 424.00 275.00
C 422.23 273.78 420.12 273.94 418.00 274.00
C 418.96 279.01 410.87 274.74 408.08 279.08 C 405.30 283.42 400.55 285.30 400.00 291.00
C 398.01 287.21 394.28 288.54 395.00 293.00
C 390.12 291.64 384.84 298.36 382.00 302.00
C 375.74 296.20 370.96 310.54 365.00 308.00
C 364.93 315.65 353.67 312.62 353.00 318.00
C 347.24 312.98 341.34 318.86 336.00 316.00
C 338.74 318.30 337.58 321.10 334.00 321.00
C 334.01 322.35 333.95 323.98 335.00 325.00 Z"/>
</g>
<g fill="#FA98A7" fill-opacity="0.97" stroke="None">
<path d="
M 227.00 290.00 
C 230.95 296.00 235.88 301.92 238.26 309.74 C 240.64 317.57 243.37 324.74 247.00 332.00
C 250.68 339.37 256.43 346.75 255.00 355.00
C 258.84 353.53 257.74 359.39 261.00 359.00
C 254.33 365.44 268.12 373.74 269.00 382.00
C 259.45 383.31 272.51 392.31 264.00 391.00
C 264.83 394.22 267.00 395.60 270.00 394.00
C 264.91 399.33 272.54 410.00 266.00 414.00
C 269.67 420.58 264.02 425.73 266.00 433.00
C 272.00 434.39 272.05 439.91 266.00 438.00
C 270.24 440.83 271.95 449.83 267.00 452.00
C 273.68 460.74 263.40 471.77 265.00 482.00
C 257.00 485.57 259.43 499.23 251.00 504.00
C 253.47 509.91 248.41 515.13 249.00 521.00
C 240.06 522.56 243.31 539.23 240.00 545.00
C 264.15 529.90 271.60 506.48 280.07 480.07 C 288.55 453.67 288.07 413.52 284.00 385.00
C 282.55 384.92 281.14 385.07 280.00 386.00
C 279.36 380.88 278.67 375.97 275.90 372.10 C 273.14 368.22 275.10 361.58 270.00 361.00
C 271.50 357.49 271.21 351.74 267.00 352.00
C 267.34 338.32 260.59 327.26 261.00 315.00
C 255.72 316.22 255.79 310.15 257.00 307.00
C 247.77 305.18 241.86 293.74 233.00 289.00
C 236.77 282.32 227.06 280.27 224.00 277.00
C 225.16 281.23 225.97 285.76 227.00 290.00 Z"/>
</g>
<g fill="#FCD5DB" fill-opacity="0.97" stroke="None">
<path d="
M 238.00 426.00 
C 240.12 440.59 240.83 456.97 229.00 469.00
C 235.90 473.97 222.53 479.12 227.00 486.00
C 219.72 483.13 218.69 501.79 210.00 499.00
C 202.45 510.70 192.64 520.44 200.00 535.00
C 202.79 534.24 203.40 529.06 207.00 528.00
C 202.83 524.53 209.64 514.88 214.00 520.00
C 216.34 515.71 211.81 512.52 214.00 508.00
C 218.78 508.33 219.79 511.37 219.00 516.00
C 227.10 512.31 229.10 512.28 237.67 513.33 C 246.24 514.38 242.98 503.18 246.99 497.99 C 250.99 492.80 253.25 483.83 253.99 476.99 C 254.74 470.15 256.22 462.51 255.00 455.00
C 259.69 452.17 257.82 441.73 257.66 436.32 C 257.50 430.91 252.58 421.59 257.00 415.00
C 256.89 412.33 254.36 411.80 254.00 409.00
C 259.87 404.95 250.51 400.63 257.00 396.00
C 256.57 391.71 255.11 397.89 253.00 397.00
C 254.64 391.52 256.25 384.27 252.00 380.00
C 256.87 373.58 252.37 365.86 253.20 357.75 C 254.03 349.65 243.44 339.99 247.00 332.00
C 243.37 324.74 240.64 317.57 238.26 309.74 C 235.88 301.92 230.95 296.00 227.00 290.00
C 237.58 333.36 243.68 380.17 238.00 426.00 Z"/>
</g>
<g fill="#F9A7B3" fill-opacity="0.25" stroke="None">
<path d="
M 0.00 324.00 
C 1.89 320.32 0.91 314.51 1.00 310.00
C 1.00 310.00 0.50 310.00 0.00 310.00
L 0.00 324.00 Z"/>
</g>
<g fill="#FDEDF0" fill-opacity="1.00" stroke="None">
<path d="
M 151.00 311.00 
C 148.67 312.93 146.19 311.19 144.00 310.00
C 144.61 317.76 132.15 326.80 138.00 332.00
C 134.68 330.69 134.52 335.16 132.00 335.00
C 133.90 337.88 132.53 338.72 130.00 339.00
C 135.71 345.21 125.16 348.12 126.00 355.00
C 129.01 354.24 131.40 356.16 135.00 356.00
C 132.43 359.72 131.84 365.45 129.00 369.00
C 133.57 369.39 131.13 372.13 134.00 374.00
C 133.73 377.47 129.36 373.80 130.00 377.00
C 131.55 378.82 134.91 377.80 137.00 379.00
C 135.03 376.61 139.21 375.89 141.00 376.00
C 139.98 379.60 140.30 383.14 141.00 387.00
C 143.40 382.39 148.10 384.87 149.00 389.00
C 148.31 385.94 151.50 385.67 152.00 383.00
C 153.43 386.48 156.26 388.74 157.00 393.00
C 160.17 391.06 161.90 395.57 164.00 397.00
C 166.03 395.29 168.04 391.71 166.00 389.00
C 161.39 395.08 159.98 385.50 156.00 382.00
C 161.07 383.32 159.95 378.12 159.00 375.00
C 166.59 377.31 164.53 365.57 166.00 361.00
C 170.43 364.09 167.09 355.17 173.00 357.00
C 172.95 353.90 171.34 350.81 176.00 352.00
C 171.55 344.84 180.31 340.67 176.00 334.00
C 174.07 335.24 175.47 338.92 173.00 340.00
C 171.66 337.29 169.42 331.60 174.00 330.00
C 173.14 327.54 169.99 327.73 168.00 327.00
C 166.28 329.99 169.40 331.87 169.00 335.00
C 162.16 337.37 165.21 330.65 160.00 331.00
C 165.07 325.98 159.47 321.20 153.00 320.00
C 154.83 316.38 149.85 314.82 151.00 311.00 Z"/>
</g>
<g fill="#FBB7C2" fill-opacity="0.98" stroke="None">
<path d="
M 200.00 535.00 
C 203.92 542.76 211.26 547.26 219.00 550.00
L 230.00 550.00
C 233.29 548.96 236.94 546.92 240.00 545.00
C 243.31 539.23 240.06 522.56 249.00 521.00
C 248.41 515.13 253.47 509.91 251.00 504.00
C 259.43 499.23 257.00 485.57 265.00 482.00
C 263.40 471.77 273.68 460.74 267.00 452.00
C 271.95 449.83 270.24 440.83 266.00 438.00
C 272.05 439.91 272.00 434.39 266.00 433.00
C 264.02 425.73 269.67 420.58 266.00 414.00
C 272.54 410.00 264.91 399.33 270.00 394.00
C 267.00 395.60 264.83 394.22 264.00 391.00
C 272.51 392.31 259.45 383.31 269.00 382.00
C 268.12 373.74 254.33 365.44 261.00 359.00
C 257.74 359.39 258.84 353.53 255.00 355.00
C 256.43 346.75 250.68 339.37 247.00 332.00
C 243.44 339.99 254.03 349.65 253.20 357.75 C 252.37 365.86 256.87 373.58 252.00 380.00
C 256.25 384.27 254.64 391.52 253.00 397.00
C 255.11 397.89 256.57 391.71 257.00 396.00
C 250.51 400.63 259.87 404.95 254.00 409.00
C 254.36 411.80 256.89 412.33 257.00 415.00
C 252.58 421.59 257.50 430.91 257.66 436.32 C 257.82 441.73 259.69 452.17 255.00 455.00
C 256.22 462.51 254.74 470.15 253.99 476.99 C 253.25 483.83 250.99 492.80 246.99 497.99 C 242.98 503.18 246.24 514.38 237.67 513.33 C 229.10 512.28 227.10 512.31 219.00 516.00
C 219.79 511.37 218.78 508.33 214.00 508.00
C 211.81 512.52 216.34 515.71 214.00 520.00
C 209.64 514.88 202.83 524.53 207.00 528.00
C 203.40 529.06 202.79 534.24 200.00 535.00 Z"/>
</g>
<g fill="#FCE7EB" fill-opacity="0.85" stroke="None">
<path d="
M 210.00 499.00 
C 218.69 501.79 219.72 483.13 227.00 486.00
C 222.53 479.12 235.90 473.97 229.00 469.00
C 240.83 456.97 240.12 440.59 238.00 426.00
C 234.67 452.84 224.59 476.39 210.00 499.00 Z"/>
</g>
</svg>